<mxfile host="65bd71144e">
    <diagram id="25hjQL43QvnT5SgknHcu" name="Page-1">
        <mxGraphModel dx="24" dy="343" grid="1" gridSize="10" guides="1" tooltips="1" connect="1" arrows="1" fold="1" page="1" pageScale="1" pageWidth="850" pageHeight="1400" math="0" shadow="0">
            <root>
                <mxCell id="0"/>
                <mxCell id="1" parent="0"/>
                <mxCell id="3" value="User" style="shape=umlActor;verticalLabelPosition=bottom;verticalAlign=top;html=1;outlineConnect=0;" parent="1" vertex="1">
                    <mxGeometry x="20" y="70" width="30" height="60" as="geometry"/>
                </mxCell>
                <mxCell id="8" value="App" style="whiteSpace=wrap;html=1;aspect=fixed;fillColor=#1ba1e2;fontColor=#ffffff;strokeColor=#006EAF;" parent="1" vertex="1">
                    <mxGeometry x="140" y="70" width="80" height="80" as="geometry"/>
                </mxCell>
                <mxCell id="9" value="" style="endArrow=classic;startArrow=classic;html=1;fillColor=#d80073;strokeColor=#A50040;" parent="1" edge="1">
                    <mxGeometry width="50" height="50" relative="1" as="geometry">
                        <mxPoint x="60" y="110" as="sourcePoint"/>
                        <mxPoint x="130" y="110" as="targetPoint"/>
                    </mxGeometry>
                </mxCell>
                <mxCell id="58" style="edgeStyle=none;html=1;exitX=0.55;exitY=0.95;exitDx=0;exitDy=0;exitPerimeter=0;entryX=0.425;entryY=-0.017;entryDx=0;entryDy=0;entryPerimeter=0;fillColor=#60a917;strokeColor=#2D7600;" parent="1" source="10" target="57" edge="1">
                    <mxGeometry relative="1" as="geometry"/>
                </mxCell>
                <mxCell id="10" value="Cloud Services" style="ellipse;shape=cloud;whiteSpace=wrap;html=1;fillColor=#b1ddf0;strokeColor=#10739e;fontColor=#1d0b0b;" parent="1" vertex="1">
                    <mxGeometry x="640" y="10" width="160" height="100" as="geometry"/>
                </mxCell>
                <mxCell id="111" style="edgeStyle=none;html=1;exitX=0.25;exitY=0;exitDx=0;exitDy=0;entryX=0.183;entryY=0;entryDx=0;entryDy=0;entryPerimeter=0;fontColor=#f0efef;" parent="1" source="13" target="108" edge="1">
                    <mxGeometry relative="1" as="geometry">
                        <Array as="points">
                            <mxPoint x="380" y="40"/>
                            <mxPoint x="70" y="40"/>
                        </Array>
                    </mxGeometry>
                </mxCell>
                <mxCell id="13" value="Auth" style="rounded=1;whiteSpace=wrap;html=1;fillColor=#60a917;fontColor=#ffffff;strokeColor=#2D7600;" parent="1" vertex="1">
                    <mxGeometry x="350" y="60" width="120" height="60" as="geometry"/>
                </mxCell>
                <mxCell id="14" value="" style="endArrow=classic;html=1;exitX=1;exitY=0.25;exitDx=0;exitDy=0;entryX=0;entryY=0.5;entryDx=0;entryDy=0;fillColor=#60a917;strokeColor=#2D7600;" parent="1" source="8" target="13" edge="1">
                    <mxGeometry width="50" height="50" relative="1" as="geometry">
                        <mxPoint x="240" y="90" as="sourcePoint"/>
                        <mxPoint x="330" y="90" as="targetPoint"/>
                    </mxGeometry>
                </mxCell>
                <mxCell id="73" style="edgeStyle=orthogonalEdgeStyle;html=1;exitX=0.25;exitY=1;exitDx=0;exitDy=0;entryX=1;entryY=0.5;entryDx=0;entryDy=0;" parent="1" source="15" target="72" edge="1">
                    <mxGeometry relative="1" as="geometry">
                        <Array as="points">
                            <mxPoint x="570" y="230"/>
                            <mxPoint x="490" y="230"/>
                            <mxPoint x="490" y="280"/>
                        </Array>
                    </mxGeometry>
                </mxCell>
                <mxCell id="88" style="edgeStyle=entityRelationEdgeStyle;html=1;exitX=0.5;exitY=1;exitDx=0;exitDy=0;" parent="1" source="15" target="84" edge="1">
                    <mxGeometry relative="1" as="geometry"/>
                </mxCell>
                <mxCell id="15" value="App Auth" style="rounded=0;whiteSpace=wrap;html=1;" parent="1" vertex="1">
                    <mxGeometry x="540" y="150" width="120" height="60" as="geometry"/>
                </mxCell>
                <mxCell id="16" value="" style="endArrow=classic;html=1;fillColor=#60a917;strokeColor=#2D7600;" parent="1" edge="1">
                    <mxGeometry width="50" height="50" relative="1" as="geometry">
                        <mxPoint x="470" y="110" as="sourcePoint"/>
                        <mxPoint x="600" y="140" as="targetPoint"/>
                        <Array as="points">
                            <mxPoint x="600" y="110"/>
                        </Array>
                    </mxGeometry>
                </mxCell>
                <mxCell id="103" style="edgeStyle=none;html=1;exitX=0;exitY=0.5;exitDx=0;exitDy=0;entryX=0;entryY=0.5;entryDx=0;entryDy=0;" parent="1" source="17" target="35" edge="1">
                    <mxGeometry relative="1" as="geometry">
                        <mxPoint x="350" y="550" as="targetPoint"/>
                        <Array as="points">
                            <mxPoint x="350" y="370"/>
                            <mxPoint x="350" y="570"/>
                        </Array>
                    </mxGeometry>
                </mxCell>
                <mxCell id="17" value="Validation" style="shape=document;whiteSpace=wrap;html=1;boundedLbl=1;" parent="1" vertex="1">
                    <mxGeometry x="380" y="330" width="120" height="80" as="geometry"/>
                </mxCell>
                <mxCell id="25" style="edgeStyle=none;html=1;exitX=0.5;exitY=0;exitDx=0;exitDy=0;" parent="1" source="20" edge="1">
                    <mxGeometry relative="1" as="geometry">
                        <mxPoint x="165" y="160" as="targetPoint"/>
                    </mxGeometry>
                </mxCell>
                <mxCell id="56" style="edgeStyle=none;html=1;exitX=0;exitY=1;exitDx=0;exitDy=0;entryX=0.708;entryY=0.25;entryDx=0;entryDy=0;entryPerimeter=0;" parent="1" source="20" target="54" edge="1">
                    <mxGeometry relative="1" as="geometry">
                        <mxPoint x="100" y="370" as="targetPoint"/>
                        <Array as="points">
                            <mxPoint x="190" y="350"/>
                        </Array>
                    </mxGeometry>
                </mxCell>
                <mxCell id="20" value="Response" style="ellipse;whiteSpace=wrap;html=1;aspect=fixed;" parent="1" vertex="1">
                    <mxGeometry x="130" y="260" width="70" height="70" as="geometry"/>
                </mxCell>
                <mxCell id="21" value="" style="endArrow=classic;html=1;" parent="1" edge="1">
                    <mxGeometry width="50" height="50" relative="1" as="geometry">
                        <mxPoint x="120" y="290" as="sourcePoint"/>
                        <mxPoint x="150" y="160" as="targetPoint"/>
                        <Array as="points">
                            <mxPoint x="100" y="290"/>
                            <mxPoint x="100" y="180"/>
                            <mxPoint x="150" y="180"/>
                        </Array>
                    </mxGeometry>
                </mxCell>
                <mxCell id="31" style="edgeStyle=none;html=1;exitX=0.5;exitY=0;exitDx=0;exitDy=0;fillColor=#1ba1e2;strokeColor=#006EAF;" parent="1" source="27" edge="1">
                    <mxGeometry relative="1" as="geometry">
                        <mxPoint x="210" y="290" as="targetPoint"/>
                        <Array as="points">
                            <mxPoint x="285" y="290"/>
                        </Array>
                    </mxGeometry>
                </mxCell>
                <mxCell id="67" style="edgeStyle=none;html=1;exitX=0;exitY=0.5;exitDx=0;exitDy=0;entryX=0;entryY=0.5;entryDx=0;entryDy=0;fillColor=#0050ef;strokeColor=#001DBC;" parent="1" target="27" edge="1">
                    <mxGeometry relative="1" as="geometry">
                        <mxPoint x="430" y="430" as="sourcePoint"/>
                        <Array as="points">
                            <mxPoint x="240" y="430"/>
                            <mxPoint x="240" y="510"/>
                        </Array>
                    </mxGeometry>
                </mxCell>
                <mxCell id="104" style="edgeStyle=none;html=1;exitX=0;exitY=0;exitDx=0;exitDy=0;entryX=0;entryY=0;entryDx=0;entryDy=0;fillColor=#0050ef;strokeColor=#001DBC;" parent="1" target="27" edge="1">
                    <mxGeometry relative="1" as="geometry">
                        <mxPoint x="350" y="460" as="sourcePoint"/>
                        <Array as="points">
                            <mxPoint x="270" y="460"/>
                        </Array>
                    </mxGeometry>
                </mxCell>
                <mxCell id="27" value="" style="rhombus;whiteSpace=wrap;html=1;fillColor=#f5f5f5;fontColor=#333333;strokeColor=#666666;" parent="1" vertex="1">
                    <mxGeometry x="260" y="480" width="50" height="40" as="geometry"/>
                </mxCell>
                <mxCell id="32" value="" style="shape=waypoint;sketch=0;fillStyle=solid;size=6;pointerEvents=1;points=[];fillColor=none;resizable=0;rotatable=0;perimeter=centerPerimeter;snapToPoint=1;" parent="1" vertex="1">
                    <mxGeometry x="350" y="370" width="20" height="20" as="geometry"/>
                </mxCell>
                <mxCell id="50" style="edgeStyle=none;html=1;exitX=1;exitY=0;exitDx=0;exitDy=52.5;exitPerimeter=0;entryX=0;entryY=0.75;entryDx=0;entryDy=0;fillColor=#0050ef;strokeColor=#001DBC;" parent="1" source="33" target="46" edge="1">
                    <mxGeometry relative="1" as="geometry"/>
                </mxCell>
                <mxCell id="33" value="DB" style="shape=cylinder3;whiteSpace=wrap;html=1;boundedLbl=1;backgroundOutline=1;size=15;" parent="1" vertex="1">
                    <mxGeometry x="230" y="120" width="60" height="80" as="geometry"/>
                </mxCell>
                <mxCell id="38" style="edgeStyle=none;html=1;exitX=0.5;exitY=0;exitDx=0;exitDy=0;entryX=1;entryY=0.5;entryDx=0;entryDy=0;fillColor=#0050ef;strokeColor=#001DBC;" parent="1" source="35" target="27" edge="1">
                    <mxGeometry relative="1" as="geometry">
                        <mxPoint x="450" y="500" as="targetPoint"/>
                        <Array as="points">
                            <mxPoint x="450" y="500"/>
                        </Array>
                    </mxGeometry>
                </mxCell>
                <mxCell id="42" style="edgeStyle=none;html=1;exitX=0.75;exitY=0;exitDx=0;exitDy=0;entryX=0.25;entryY=0;entryDx=0;entryDy=0;fillColor=#fa6800;strokeColor=#C73500;" parent="1" source="35" target="40" edge="1">
                    <mxGeometry relative="1" as="geometry">
                        <mxPoint x="480" y="500" as="targetPoint"/>
                        <Array as="points">
                            <mxPoint x="480" y="500"/>
                            <mxPoint x="610" y="500"/>
                            <mxPoint x="720" y="500"/>
                        </Array>
                    </mxGeometry>
                </mxCell>
                <mxCell id="97" style="edgeStyle=none;html=1;exitX=1;exitY=0.25;exitDx=0;exitDy=0;entryX=0;entryY=0;entryDx=0;entryDy=27.5;entryPerimeter=0;" parent="1" source="35" target="51" edge="1">
                    <mxGeometry relative="1" as="geometry"/>
                </mxCell>
                <mxCell id="35" value="Command" style="rounded=1;whiteSpace=wrap;html=1;" parent="1" vertex="1">
                    <mxGeometry x="390" y="540" width="120" height="60" as="geometry"/>
                </mxCell>
                <mxCell id="39" value="" style="shape=waypoint;sketch=0;fillStyle=solid;size=6;pointerEvents=1;points=[];fillColor=none;resizable=0;rotatable=0;perimeter=centerPerimeter;snapToPoint=1;" parent="1" vertex="1">
                    <mxGeometry x="425" y="500" width="20" height="20" as="geometry"/>
                </mxCell>
                <mxCell id="43" style="edgeStyle=none;html=1;exitX=0.75;exitY=0;exitDx=0;exitDy=0;fillColor=#0050ef;strokeColor=#001DBC;" parent="1" source="40" edge="1">
                    <mxGeometry relative="1" as="geometry">
                        <mxPoint x="440" y="500" as="targetPoint"/>
                        <Array as="points">
                            <mxPoint x="780" y="480"/>
                            <mxPoint x="670" y="480"/>
                            <mxPoint x="440" y="480"/>
                        </Array>
                    </mxGeometry>
                </mxCell>
                <mxCell id="40" value="Email" style="shape=document;whiteSpace=wrap;html=1;boundedLbl=1;" parent="1" vertex="1">
                    <mxGeometry x="690" y="520" width="120" height="80" as="geometry"/>
                </mxCell>
                <mxCell id="45" value="" style="endArrow=classic;html=1;exitX=1;exitY=0.25;exitDx=0;exitDy=0;entryX=0.1;entryY=0.66;entryDx=0;entryDy=0;entryPerimeter=0;fillColor=#60a917;strokeColor=#2D7600;" parent="1" source="13" target="10" edge="1">
                    <mxGeometry width="50" height="50" relative="1" as="geometry">
                        <mxPoint x="490" y="75" as="sourcePoint"/>
                        <mxPoint x="650" y="75" as="targetPoint"/>
                    </mxGeometry>
                </mxCell>
                <mxCell id="49" style="edgeStyle=none;html=1;exitX=0;exitY=0.25;exitDx=0;exitDy=0;entryX=1;entryY=0;entryDx=0;entryDy=27.5;entryPerimeter=0;fillColor=#e3c800;strokeColor=#B09500;" parent="1" source="46" target="33" edge="1">
                    <mxGeometry relative="1" as="geometry"/>
                </mxCell>
                <mxCell id="46" value="Query" style="rounded=1;whiteSpace=wrap;html=1;" parent="1" vertex="1">
                    <mxGeometry x="340" y="130" width="120" height="60" as="geometry"/>
                </mxCell>
                <mxCell id="98" style="edgeStyle=none;html=1;exitX=0;exitY=0;exitDx=0;exitDy=52.5;exitPerimeter=0;entryX=1;entryY=0.75;entryDx=0;entryDy=0;" parent="1" source="51" target="35" edge="1">
                    <mxGeometry relative="1" as="geometry"/>
                </mxCell>
                <mxCell id="51" value="DB" style="shape=cylinder3;whiteSpace=wrap;html=1;boundedLbl=1;backgroundOutline=1;size=15;" parent="1" vertex="1">
                    <mxGeometry x="570" y="530" width="80" height="80" as="geometry"/>
                </mxCell>
                <mxCell id="54" value="Session" style="ellipse;shape=cloud;whiteSpace=wrap;html=1;direction=south;" parent="1" vertex="1">
                    <mxGeometry x="130" y="350" width="110" height="80" as="geometry"/>
                </mxCell>
                <mxCell id="57" value="Google" style="shape=parallelogram;perimeter=parallelogramPerimeter;whiteSpace=wrap;html=1;fixedSize=1;" parent="1" vertex="1">
                    <mxGeometry x="680" y="170" width="120" height="60" as="geometry"/>
                </mxCell>
                <mxCell id="64" style="edgeStyle=none;html=1;exitX=0.25;exitY=1;exitDx=0;exitDy=0;entryX=1;entryY=0.5;entryDx=0;entryDy=0;fillColor=#fa6800;strokeColor=#C73500;" parent="1" source="57" target="63" edge="1">
                    <mxGeometry relative="1" as="geometry">
                        <mxPoint x="710" y="310" as="sourcePoint"/>
                        <Array as="points">
                            <mxPoint x="710" y="410"/>
                        </Array>
                    </mxGeometry>
                </mxCell>
                <mxCell id="65" style="edgeStyle=none;html=1;exitX=0;exitY=0.5;exitDx=0;exitDy=0;entryX=0.25;entryY=0;entryDx=0;entryDy=0;fillColor=#e3c800;strokeColor=#B09500;" parent="1" edge="1">
                    <mxGeometry relative="1" as="geometry">
                        <mxPoint x="602" y="409" as="sourcePoint"/>
                        <mxPoint x="422" y="539" as="targetPoint"/>
                        <Array as="points">
                            <mxPoint x="552" y="409"/>
                            <mxPoint x="552" y="429"/>
                            <mxPoint x="422" y="429"/>
                        </Array>
                    </mxGeometry>
                </mxCell>
                <mxCell id="63" value="" style="rhombus;whiteSpace=wrap;html=1;fillColor=#dae8fc;strokeColor=#6c8ebf;" parent="1" vertex="1">
                    <mxGeometry x="600" y="390" width="40" height="40" as="geometry"/>
                </mxCell>
                <mxCell id="70" value="" style="shape=waypoint;sketch=0;fillStyle=solid;size=6;pointerEvents=1;points=[];fillColor=none;resizable=0;rotatable=0;perimeter=centerPerimeter;snapToPoint=1;" parent="1" vertex="1">
                    <mxGeometry x="690" y="390" width="20" height="20" as="geometry"/>
                </mxCell>
                <mxCell id="78" style="edgeStyle=orthogonalEdgeStyle;html=1;exitX=0.75;exitY=0;exitDx=0;exitDy=0;entryX=0.75;entryY=1;entryDx=0;entryDy=0;" parent="1" source="72" target="46" edge="1">
                    <mxGeometry relative="1" as="geometry"/>
                </mxCell>
                <mxCell id="79" style="edgeStyle=orthogonalEdgeStyle;html=1;exitX=0.25;exitY=0;exitDx=0;exitDy=0;entryX=0.35;entryY=1.033;entryDx=0;entryDy=0;entryPerimeter=0;" parent="1" source="72" target="46" edge="1">
                    <mxGeometry relative="1" as="geometry"/>
                </mxCell>
                <mxCell id="72" value="Login" style="rounded=1;whiteSpace=wrap;html=1;" parent="1" vertex="1">
                    <mxGeometry x="350" y="260" width="110" height="40" as="geometry"/>
                </mxCell>
                <mxCell id="83" value="" style="endArrow=none;html=1;entryX=0;entryY=0.75;entryDx=0;entryDy=0;fillColor=#0050ef;strokeColor=#001DBC;" parent="1" target="72" edge="1">
                    <mxGeometry width="50" height="50" relative="1" as="geometry">
                        <mxPoint x="280" y="290" as="sourcePoint"/>
                        <mxPoint x="285" y="210" as="targetPoint"/>
                    </mxGeometry>
                </mxCell>
                <mxCell id="95" style="edgeStyle=none;html=1;entryX=1;entryY=0.5;entryDx=0;entryDy=0;exitX=0.25;exitY=1;exitDx=0;exitDy=0;" parent="1" source="84" target="17" edge="1">
                    <mxGeometry relative="1" as="geometry">
                        <mxPoint x="550" y="330" as="sourcePoint"/>
                        <Array as="points">
                            <mxPoint x="540" y="370"/>
                        </Array>
                    </mxGeometry>
                </mxCell>
                <mxCell id="84" value="Logup" style="rounded=1;whiteSpace=wrap;html=1;" parent="1" vertex="1">
                    <mxGeometry x="510" y="280" width="110" height="40" as="geometry"/>
                </mxCell>
                <mxCell id="96" value="" style="endArrow=classic;startArrow=classic;html=1;exitX=0.5;exitY=0;exitDx=0;exitDy=0;entryX=1;entryY=0.5;entryDx=0;entryDy=0;" parent="1" source="63" target="46" edge="1">
                    <mxGeometry width="50" height="50" relative="1" as="geometry">
                        <mxPoint x="660" y="400" as="sourcePoint"/>
                        <mxPoint x="710" y="350" as="targetPoint"/>
                        <Array as="points">
                            <mxPoint x="670" y="390"/>
                            <mxPoint x="670" y="250"/>
                            <mxPoint x="500" y="250"/>
                            <mxPoint x="500" y="160"/>
                        </Array>
                    </mxGeometry>
                </mxCell>
                <mxCell id="101" value="" style="shape=waypoint;sketch=0;fillStyle=solid;size=6;pointerEvents=1;points=[];fillColor=none;resizable=0;rotatable=0;perimeter=centerPerimeter;snapToPoint=1;" parent="1" vertex="1">
                    <mxGeometry x="480" y="500" width="20" height="20" as="geometry"/>
                </mxCell>
                <mxCell id="108" value="ForgetPassword" style="rounded=1;whiteSpace=wrap;html=1;fontColor=#f0efef;" parent="1" vertex="1">
                    <mxGeometry x="40" y="520" width="120" height="60" as="geometry"/>
                </mxCell>
                <mxCell id="114" style="edgeStyle=none;html=1;exitX=1;exitY=0.25;exitDx=0;exitDy=0;fontColor=#f0efef;" parent="1" source="109" edge="1">
                    <mxGeometry relative="1" as="geometry">
                        <mxPoint x="550" y="670" as="targetPoint"/>
                    </mxGeometry>
                </mxCell>
                <mxCell id="120" style="edgeStyle=none;html=1;exitX=0;exitY=0.5;exitDx=0;exitDy=0;entryX=0;entryY=0.5;entryDx=0;entryDy=0;fontColor=#f0efef;" parent="1" source="109" target="119" edge="1">
                    <mxGeometry relative="1" as="geometry">
                        <Array as="points">
                            <mxPoint x="330" y="690"/>
                            <mxPoint x="330" y="760"/>
                            <mxPoint x="340" y="770"/>
                        </Array>
                    </mxGeometry>
                </mxCell>
                <mxCell id="109" value="Validation" style="shape=document;whiteSpace=wrap;html=1;boundedLbl=1;fontColor=#f0efef;" parent="1" vertex="1">
                    <mxGeometry x="355" y="650" width="120" height="80" as="geometry"/>
                </mxCell>
                <mxCell id="112" value="Response" style="ellipse;whiteSpace=wrap;html=1;aspect=fixed;fontColor=#f0efef;" parent="1" vertex="1">
                    <mxGeometry x="20" y="1050" width="70" height="70" as="geometry"/>
                </mxCell>
                <mxCell id="115" style="edgeStyle=none;html=1;exitX=0;exitY=0.5;exitDx=0;exitDy=0;fontColor=#f0efef;" parent="1" source="113" edge="1">
                    <mxGeometry relative="1" as="geometry">
                        <mxPoint x="480" y="690" as="targetPoint"/>
                    </mxGeometry>
                </mxCell>
                <mxCell id="117" style="edgeStyle=none;html=1;exitX=1;exitY=0.25;exitDx=0;exitDy=0;fontColor=#f0efef;" parent="1" source="113" edge="1">
                    <mxGeometry relative="1" as="geometry">
                        <mxPoint x="720" y="675" as="targetPoint"/>
                    </mxGeometry>
                </mxCell>
                <mxCell id="113" value="Query" style="rounded=1;whiteSpace=wrap;html=1;" parent="1" vertex="1">
                    <mxGeometry x="555" y="660" width="120" height="60" as="geometry"/>
                </mxCell>
                <mxCell id="118" style="edgeStyle=none;html=1;exitX=0;exitY=0;exitDx=0;exitDy=52.5;exitPerimeter=0;fontColor=#f0efef;" parent="1" source="116" edge="1">
                    <mxGeometry relative="1" as="geometry">
                        <mxPoint x="680" y="703" as="targetPoint"/>
                    </mxGeometry>
                </mxCell>
                <mxCell id="116" value="DB" style="shape=cylinder3;whiteSpace=wrap;html=1;boundedLbl=1;backgroundOutline=1;size=15;" parent="1" vertex="1">
                    <mxGeometry x="730" y="650" width="80" height="80" as="geometry"/>
                </mxCell>
                <mxCell id="121" style="edgeStyle=none;html=1;exitX=0.25;exitY=1;exitDx=0;exitDy=0;fontColor=#f0efef;" parent="1" source="119" edge="1">
                    <mxGeometry relative="1" as="geometry">
                        <mxPoint x="70" y="740" as="targetPoint"/>
                        <Array as="points">
                            <mxPoint x="500" y="850"/>
                            <mxPoint x="330" y="850"/>
                            <mxPoint x="310" y="850"/>
                            <mxPoint x="310" y="740"/>
                        </Array>
                    </mxGeometry>
                </mxCell>
                <mxCell id="124" style="edgeStyle=none;html=1;exitX=1;exitY=0.5;exitDx=0;exitDy=0;entryX=-0.017;entryY=0.363;entryDx=0;entryDy=0;entryPerimeter=0;fontColor=#f0efef;" parent="1" source="119" target="122" edge="1">
                    <mxGeometry relative="1" as="geometry"/>
                </mxCell>
                <mxCell id="119" value="Actuator" style="rounded=1;whiteSpace=wrap;html=1;fontColor=#f0efef;" parent="1" vertex="1">
                    <mxGeometry x="470" y="740" width="120" height="60" as="geometry"/>
                </mxCell>
                <mxCell id="122" value="Email" style="shape=document;whiteSpace=wrap;html=1;boundedLbl=1;fontColor=#f0efef;" parent="1" vertex="1">
                    <mxGeometry x="670" y="740" width="120" height="80" as="geometry"/>
                </mxCell>
                <mxCell id="125" value="" style="shape=flexArrow;endArrow=classic;startArrow=classic;html=1;fontColor=#f0efef;" parent="1" edge="1">
                    <mxGeometry width="100" height="100" relative="1" as="geometry">
                        <mxPoint x="60" y="1030" as="sourcePoint"/>
                        <mxPoint x="60" y="630" as="targetPoint"/>
                    </mxGeometry>
                </mxCell>
                <mxCell id="127" style="edgeStyle=none;html=1;exitX=1;exitY=0.5;exitDx=0;exitDy=0;fontColor=#f0efef;" parent="1" source="126" edge="1">
                    <mxGeometry relative="1" as="geometry">
                        <mxPoint x="350" y="670" as="targetPoint"/>
                    </mxGeometry>
                </mxCell>
                <mxCell id="128" style="edgeStyle=none;html=1;exitX=0;exitY=0.5;exitDx=0;exitDy=0;fontColor=#f0efef;entryX=0;entryY=0.5;entryDx=0;entryDy=0;" parent="1" target="126" edge="1">
                    <mxGeometry relative="1" as="geometry">
                        <mxPoint x="70" y="670" as="sourcePoint"/>
                    </mxGeometry>
                </mxCell>
                <mxCell id="126" value="Step1" style="rounded=1;whiteSpace=wrap;html=1;fontColor=#f0efef;" parent="1" vertex="1">
                    <mxGeometry x="120" y="640" width="120" height="60" as="geometry"/>
                </mxCell>
                <mxCell id="130" style="edgeStyle=none;html=1;exitX=0;exitY=0.5;exitDx=0;exitDy=0;entryX=0;entryY=0.5;entryDx=0;entryDy=0;" parent="1" target="129" edge="1">
                    <mxGeometry relative="1" as="geometry">
                        <mxPoint x="70" y="900" as="sourcePoint"/>
                    </mxGeometry>
                </mxCell>
                <mxCell id="132" style="edgeStyle=none;html=1;exitX=1;exitY=0.5;exitDx=0;exitDy=0;entryX=0;entryY=0.25;entryDx=0;entryDy=0;" parent="1" source="129" target="131" edge="1">
                    <mxGeometry relative="1" as="geometry"/>
                </mxCell>
                <mxCell id="129" value="Step2" style="rounded=1;whiteSpace=wrap;html=1;" parent="1" vertex="1">
                    <mxGeometry x="120" y="870" width="120" height="60" as="geometry"/>
                </mxCell>
                <mxCell id="135" style="edgeStyle=none;html=1;exitX=1;exitY=0.25;exitDx=0;exitDy=0;entryX=0.375;entryY=0;entryDx=0;entryDy=0;" parent="1" source="131" target="133" edge="1">
                    <mxGeometry relative="1" as="geometry">
                        <Array as="points">
                            <mxPoint x="538" y="900"/>
                        </Array>
                    </mxGeometry>
                </mxCell>
                <mxCell id="131" value="Validation" style="shape=document;whiteSpace=wrap;html=1;boundedLbl=1;" parent="1" vertex="1">
                    <mxGeometry x="355" y="880" width="120" height="80" as="geometry"/>
                </mxCell>
                <mxCell id="136" style="edgeStyle=none;html=1;exitX=0.625;exitY=0;exitDx=0;exitDy=0;entryX=0.008;entryY=0.367;entryDx=0;entryDy=0;entryPerimeter=0;" parent="1" source="133" target="134" edge="1">
                    <mxGeometry relative="1" as="geometry">
                        <Array as="points">
                            <mxPoint x="560" y="900"/>
                        </Array>
                    </mxGeometry>
                </mxCell>
                <mxCell id="145" style="edgeStyle=none;html=1;exitX=1;exitY=0.5;exitDx=0;exitDy=0;entryX=0.75;entryY=0;entryDx=0;entryDy=0;" parent="1" source="133" target="137" edge="1">
                    <mxGeometry relative="1" as="geometry">
                        <Array as="points">
                            <mxPoint x="670" y="995"/>
                        </Array>
                    </mxGeometry>
                </mxCell>
                <mxCell id="146" style="edgeStyle=none;html=1;exitX=0.25;exitY=0;exitDx=0;exitDy=0;entryX=0.625;entryY=1;entryDx=0;entryDy=0;" parent="1" source="137" target="133" edge="1">
                    <mxGeometry relative="1" as="geometry">
                        <Array as="points">
                            <mxPoint x="610" y="1040"/>
                            <mxPoint x="563" y="1040"/>
                        </Array>
                    </mxGeometry>
                </mxCell>
                <mxCell id="147" style="edgeStyle=none;html=1;exitX=0;exitY=0.5;exitDx=0;exitDy=0;" parent="1" source="133" edge="1">
                    <mxGeometry relative="1" as="geometry">
                        <mxPoint x="70" y="995" as="targetPoint"/>
                    </mxGeometry>
                </mxCell>
                <mxCell id="133" value="Data" style="shape=hexagon;perimeter=hexagonPerimeter2;whiteSpace=wrap;html=1;fixedSize=1;" parent="1" vertex="1">
                    <mxGeometry x="500" y="970" width="100" height="50" as="geometry"/>
                </mxCell>
                <mxCell id="140" style="edgeStyle=none;html=1;exitX=1;exitY=0.75;exitDx=0;exitDy=0;" parent="1" source="134" edge="1">
                    <mxGeometry relative="1" as="geometry">
                        <mxPoint x="750" y="925" as="targetPoint"/>
                    </mxGeometry>
                </mxCell>
                <mxCell id="134" value="Query" style="rounded=1;whiteSpace=wrap;html=1;" parent="1" vertex="1">
                    <mxGeometry x="600" y="880" width="120" height="60" as="geometry"/>
                </mxCell>
                <mxCell id="143" style="edgeStyle=none;html=1;exitX=1;exitY=0.25;exitDx=0;exitDy=0;" parent="1" source="137" edge="1">
                    <mxGeometry relative="1" as="geometry">
                        <mxPoint x="730" y="1070" as="targetPoint"/>
                    </mxGeometry>
                </mxCell>
                <mxCell id="137" value="Command" style="rounded=1;whiteSpace=wrap;html=1;" parent="1" vertex="1">
                    <mxGeometry x="580" y="1055" width="120" height="60" as="geometry"/>
                </mxCell>
                <mxCell id="139" style="edgeStyle=none;html=1;exitX=0;exitY=0;exitDx=0;exitDy=27.5;exitPerimeter=0;" parent="1" source="138" edge="1">
                    <mxGeometry relative="1" as="geometry">
                        <mxPoint x="730" y="888" as="targetPoint"/>
                    </mxGeometry>
                </mxCell>
                <mxCell id="138" value="DB" style="shape=cylinder3;whiteSpace=wrap;html=1;boundedLbl=1;backgroundOutline=1;size=15;" parent="1" vertex="1">
                    <mxGeometry x="760" y="860" width="80" height="80" as="geometry"/>
                </mxCell>
                <mxCell id="144" style="edgeStyle=none;html=1;exitX=0;exitY=0;exitDx=0;exitDy=52.5;exitPerimeter=0;" parent="1" source="141" edge="1">
                    <mxGeometry relative="1" as="geometry">
                        <mxPoint x="710" y="1098" as="targetPoint"/>
                    </mxGeometry>
                </mxCell>
                <mxCell id="141" value="DB" style="shape=cylinder3;whiteSpace=wrap;html=1;boundedLbl=1;backgroundOutline=1;size=15;" parent="1" vertex="1">
                    <mxGeometry x="740" y="1045" width="80" height="80" as="geometry"/>
                </mxCell>
            </root>
        </mxGraphModel>
    </diagram>
    <diagram id="uxSsGxwYNlb6cDalp6_k" name="Page-2">
        <mxGraphModel dx="504" dy="416" grid="1" gridSize="10" guides="1" tooltips="1" connect="1" arrows="1" fold="1" page="1" pageScale="1" pageWidth="850" pageHeight="1400" math="0" shadow="0">
            <root>
                <mxCell id="0"/>
                <mxCell id="1" parent="0"/>
                <mxCell id="V2QyvBoiKXNMXoT8XH0s-4" value="Response" style="ellipse;whiteSpace=wrap;html=1;aspect=fixed;fontColor=#f0efef;" parent="1" vertex="1">
                    <mxGeometry x="30" y="1280" width="70" height="70" as="geometry"/>
                </mxCell>
                <mxCell id="V2QyvBoiKXNMXoT8XH0s-14" value="" style="shape=flexArrow;endArrow=classic;startArrow=classic;html=1;fontColor=#f0efef;" parent="1" edge="1">
                    <mxGeometry width="100" height="100" relative="1" as="geometry">
                        <mxPoint x="50" y="1250" as="sourcePoint"/>
                        <mxPoint x="40" y="50" as="targetPoint"/>
                    </mxGeometry>
                </mxCell>
                <mxCell id="V2QyvBoiKXNMXoT8XH0s-36" value="Auth" style="rounded=1;whiteSpace=wrap;html=1;" parent="1" vertex="1">
                    <mxGeometry x="700" y="20" width="120" height="60" as="geometry"/>
                </mxCell>
                <mxCell id="V2QyvBoiKXNMXoT8XH0s-38" style="edgeStyle=none;html=1;exitX=0;exitY=0.5;exitDx=0;exitDy=0;entryX=0;entryY=0.5;entryDx=0;entryDy=0;" parent="1" target="V2QyvBoiKXNMXoT8XH0s-37" edge="1">
                    <mxGeometry relative="1" as="geometry">
                        <mxPoint x="60" y="150" as="sourcePoint"/>
                    </mxGeometry>
                </mxCell>
                <mxCell id="V2QyvBoiKXNMXoT8XH0s-41" style="edgeStyle=orthogonalEdgeStyle;html=1;exitX=1;exitY=0.5;exitDx=0;exitDy=0;entryX=-0.033;entryY=0.4;entryDx=0;entryDy=0;entryPerimeter=0;" parent="1" source="V2QyvBoiKXNMXoT8XH0s-37" target="V2QyvBoiKXNMXoT8XH0s-39" edge="1">
                    <mxGeometry relative="1" as="geometry"/>
                </mxCell>
                <mxCell id="V2QyvBoiKXNMXoT8XH0s-37" value="Login" style="rounded=1;whiteSpace=wrap;html=1;" parent="1" vertex="1">
                    <mxGeometry x="100" y="120" width="120" height="60" as="geometry"/>
                </mxCell>
                <mxCell id="V2QyvBoiKXNMXoT8XH0s-46" style="edgeStyle=orthogonalEdgeStyle;html=1;exitX=1;exitY=0.25;exitDx=0;exitDy=0;" parent="1" source="V2QyvBoiKXNMXoT8XH0s-39" edge="1">
                    <mxGeometry relative="1" as="geometry">
                        <mxPoint x="440" y="170" as="targetPoint"/>
                    </mxGeometry>
                </mxCell>
                <mxCell id="V2QyvBoiKXNMXoT8XH0s-39" value="Validation" style="shape=document;whiteSpace=wrap;html=1;boundedLbl=1;" parent="1" vertex="1">
                    <mxGeometry x="280" y="150" width="120" height="80" as="geometry"/>
                </mxCell>
                <mxCell id="V2QyvBoiKXNMXoT8XH0s-42" style="edgeStyle=none;html=1;exitX=1;exitY=0.25;exitDx=0;exitDy=0;fontColor=#f0efef;" parent="1" source="V2QyvBoiKXNMXoT8XH0s-43" edge="1">
                    <mxGeometry relative="1" as="geometry">
                        <mxPoint x="610" y="165" as="targetPoint"/>
                    </mxGeometry>
                </mxCell>
                <mxCell id="V2QyvBoiKXNMXoT8XH0s-47" style="edgeStyle=orthogonalEdgeStyle;html=1;exitX=0;exitY=0.75;exitDx=0;exitDy=0;" parent="1" source="V2QyvBoiKXNMXoT8XH0s-43" edge="1">
                    <mxGeometry relative="1" as="geometry">
                        <mxPoint x="410" y="195" as="targetPoint"/>
                    </mxGeometry>
                </mxCell>
                <mxCell id="V2QyvBoiKXNMXoT8XH0s-43" value="Query" style="rounded=1;whiteSpace=wrap;html=1;" parent="1" vertex="1">
                    <mxGeometry x="445" y="150" width="120" height="60" as="geometry"/>
                </mxCell>
                <mxCell id="V2QyvBoiKXNMXoT8XH0s-44" style="edgeStyle=none;html=1;exitX=0;exitY=0;exitDx=0;exitDy=52.5;exitPerimeter=0;fontColor=#f0efef;" parent="1" source="V2QyvBoiKXNMXoT8XH0s-45" edge="1">
                    <mxGeometry relative="1" as="geometry">
                        <mxPoint x="570" y="193" as="targetPoint"/>
                    </mxGeometry>
                </mxCell>
                <mxCell id="V2QyvBoiKXNMXoT8XH0s-45" value="DB" style="shape=cylinder3;whiteSpace=wrap;html=1;boundedLbl=1;backgroundOutline=1;size=15;" parent="1" vertex="1">
                    <mxGeometry x="620" y="140" width="80" height="80" as="geometry"/>
                </mxCell>
                <mxCell id="V2QyvBoiKXNMXoT8XH0s-50" style="edgeStyle=orthogonalEdgeStyle;html=1;exitX=0;exitY=0.75;exitDx=0;exitDy=0;entryX=0;entryY=0.5;entryDx=0;entryDy=0;" parent="1" source="V2QyvBoiKXNMXoT8XH0s-39" target="V2QyvBoiKXNMXoT8XH0s-48" edge="1">
                    <mxGeometry relative="1" as="geometry">
                        <Array as="points">
                            <mxPoint x="270" y="210"/>
                            <mxPoint x="270" y="240"/>
                            <mxPoint x="350" y="240"/>
                            <mxPoint x="350" y="270"/>
                        </Array>
                    </mxGeometry>
                </mxCell>
                <mxCell id="V2QyvBoiKXNMXoT8XH0s-52" style="edgeStyle=orthogonalEdgeStyle;html=1;exitX=1;exitY=0.5;exitDx=0;exitDy=0;" parent="1" source="V2QyvBoiKXNMXoT8XH0s-48" target="V2QyvBoiKXNMXoT8XH0s-51" edge="1">
                    <mxGeometry relative="1" as="geometry"/>
                </mxCell>
                <mxCell id="V2QyvBoiKXNMXoT8XH0s-48" value="JWT" style="shape=parallelogram;perimeter=parallelogramPerimeter;whiteSpace=wrap;html=1;fixedSize=1;" parent="1" vertex="1">
                    <mxGeometry x="365" y="240" width="120" height="60" as="geometry"/>
                </mxCell>
                <mxCell id="V2QyvBoiKXNMXoT8XH0s-55" style="html=1;exitX=1;exitY=0.5;exitDx=0;exitDy=0;" parent="1" source="V2QyvBoiKXNMXoT8XH0s-51" edge="1">
                    <mxGeometry relative="1" as="geometry">
                        <mxPoint x="60" y="320" as="targetPoint"/>
                        <Array as="points">
                            <mxPoint x="670" y="270"/>
                            <mxPoint x="670" y="320"/>
                        </Array>
                    </mxGeometry>
                </mxCell>
                <mxCell id="V2QyvBoiKXNMXoT8XH0s-51" value="Session" style="shape=parallelogram;perimeter=parallelogramPerimeter;whiteSpace=wrap;html=1;fixedSize=1;" parent="1" vertex="1">
                    <mxGeometry x="510" y="240" width="120" height="60" as="geometry"/>
                </mxCell>
                <mxCell id="r4XlCvAERKRjIcLqevfs-1" style="edgeStyle=none;html=1;exitX=0;exitY=0.5;exitDx=0;exitDy=0;entryX=0;entryY=0.5;entryDx=0;entryDy=0;" parent="1" target="V2QyvBoiKXNMXoT8XH0s-56" edge="1">
                    <mxGeometry relative="1" as="geometry">
                        <mxPoint x="60" y="380" as="sourcePoint"/>
                    </mxGeometry>
                </mxCell>
                <mxCell id="r4XlCvAERKRjIcLqevfs-4" style="edgeStyle=orthogonalEdgeStyle;html=1;exitX=1;exitY=0.5;exitDx=0;exitDy=0;entryX=0;entryY=0.5;entryDx=0;entryDy=0;" parent="1" source="V2QyvBoiKXNMXoT8XH0s-56" target="r4XlCvAERKRjIcLqevfs-3" edge="1">
                    <mxGeometry relative="1" as="geometry"/>
                </mxCell>
                <mxCell id="V2QyvBoiKXNMXoT8XH0s-56" value="Logup" style="rounded=1;whiteSpace=wrap;html=1;" parent="1" vertex="1">
                    <mxGeometry x="100" y="350" width="120" height="60" as="geometry"/>
                </mxCell>
                <mxCell id="r4XlCvAERKRjIcLqevfs-6" style="edgeStyle=orthogonalEdgeStyle;html=1;exitX=1;exitY=0.25;exitDx=0;exitDy=0;" parent="1" source="r4XlCvAERKRjIcLqevfs-3" edge="1">
                    <mxGeometry relative="1" as="geometry">
                        <mxPoint x="440" y="400" as="targetPoint"/>
                    </mxGeometry>
                </mxCell>
                <mxCell id="r4XlCvAERKRjIcLqevfs-3" value="Validation" style="shape=document;whiteSpace=wrap;html=1;boundedLbl=1;" parent="1" vertex="1">
                    <mxGeometry x="270" y="370" width="120" height="80" as="geometry"/>
                </mxCell>
                <mxCell id="r4XlCvAERKRjIcLqevfs-7" style="edgeStyle=orthogonalEdgeStyle;html=1;exitX=0;exitY=0.75;exitDx=0;exitDy=0;" parent="1" edge="1">
                    <mxGeometry relative="1" as="geometry">
                        <mxPoint x="410" y="470" as="targetPoint"/>
                        <mxPoint x="445" y="425" as="sourcePoint"/>
                    </mxGeometry>
                </mxCell>
                <mxCell id="c2dyJMnm67gJMsuvYjn9-4" style="edgeStyle=orthogonalEdgeStyle;html=1;exitX=0;exitY=0.75;exitDx=0;exitDy=0;entryX=0;entryY=0.5;entryDx=0;entryDy=0;" parent="1" source="r4XlCvAERKRjIcLqevfs-3" target="c2dyJMnm67gJMsuvYjn9-2" edge="1">
                    <mxGeometry relative="1" as="geometry"/>
                </mxCell>
                <mxCell id="c2dyJMnm67gJMsuvYjn9-5" style="html=1;exitX=0.5;exitY=1;exitDx=0;exitDy=0;" parent="1" source="c2dyJMnm67gJMsuvYjn9-2" edge="1">
                    <mxGeometry relative="1" as="geometry">
                        <mxPoint x="70" y="570" as="targetPoint"/>
                        <Array as="points">
                            <mxPoint x="410" y="570"/>
                        </Array>
                    </mxGeometry>
                </mxCell>
                <mxCell id="c2dyJMnm67gJMsuvYjn9-47" style="edgeStyle=none;html=1;exitX=1;exitY=0.25;exitDx=0;exitDy=0;entryX=0;entryY=0.25;entryDx=0;entryDy=0;" parent="1" source="c2dyJMnm67gJMsuvYjn9-2" target="c2dyJMnm67gJMsuvYjn9-40" edge="1">
                    <mxGeometry relative="1" as="geometry"/>
                </mxCell>
                <mxCell id="c2dyJMnm67gJMsuvYjn9-53" style="edgeStyle=none;html=1;exitX=0.75;exitY=1;exitDx=0;exitDy=0;entryX=0;entryY=0.5;entryDx=0;entryDy=0;" parent="1" source="c2dyJMnm67gJMsuvYjn9-2" target="c2dyJMnm67gJMsuvYjn9-51" edge="1">
                    <mxGeometry relative="1" as="geometry">
                        <Array as="points">
                            <mxPoint x="440" y="600"/>
                        </Array>
                    </mxGeometry>
                </mxCell>
                <mxCell id="c2dyJMnm67gJMsuvYjn9-2" value="Data?" style="rounded=1;whiteSpace=wrap;html=1;" parent="1" vertex="1">
                    <mxGeometry x="350" y="480" width="120" height="60" as="geometry"/>
                </mxCell>
                <mxCell id="c2dyJMnm67gJMsuvYjn9-39" style="edgeStyle=none;html=1;exitX=1;exitY=0.25;exitDx=0;exitDy=0;fontColor=#f0efef;" parent="1" source="c2dyJMnm67gJMsuvYjn9-40" edge="1">
                    <mxGeometry relative="1" as="geometry">
                        <mxPoint x="675" y="495" as="targetPoint"/>
                    </mxGeometry>
                </mxCell>
                <mxCell id="c2dyJMnm67gJMsuvYjn9-52" style="html=1;exitX=0;exitY=0.75;exitDx=0;exitDy=0;entryX=0.25;entryY=0;entryDx=0;entryDy=0;" parent="1" source="c2dyJMnm67gJMsuvYjn9-40" target="c2dyJMnm67gJMsuvYjn9-51" edge="1">
                    <mxGeometry relative="1" as="geometry">
                        <Array as="points">
                            <mxPoint x="490" y="525"/>
                        </Array>
                    </mxGeometry>
                </mxCell>
                <mxCell id="c2dyJMnm67gJMsuvYjn9-40" value="Command" style="rounded=1;whiteSpace=wrap;html=1;" parent="1" vertex="1">
                    <mxGeometry x="510" y="480" width="120" height="60" as="geometry"/>
                </mxCell>
                <mxCell id="c2dyJMnm67gJMsuvYjn9-41" style="edgeStyle=none;html=1;exitX=0;exitY=0;exitDx=0;exitDy=52.5;exitPerimeter=0;fontColor=#f0efef;" parent="1" source="c2dyJMnm67gJMsuvYjn9-42" edge="1">
                    <mxGeometry relative="1" as="geometry">
                        <mxPoint x="635" y="523" as="targetPoint"/>
                    </mxGeometry>
                </mxCell>
                <mxCell id="c2dyJMnm67gJMsuvYjn9-42" value="DB" style="shape=cylinder3;whiteSpace=wrap;html=1;boundedLbl=1;backgroundOutline=1;size=15;" parent="1" vertex="1">
                    <mxGeometry x="685" y="470" width="80" height="80" as="geometry"/>
                </mxCell>
                <mxCell id="c2dyJMnm67gJMsuvYjn9-43" style="edgeStyle=none;html=1;exitX=1;exitY=0.25;exitDx=0;exitDy=0;fontColor=#f0efef;" parent="1" source="c2dyJMnm67gJMsuvYjn9-44" edge="1">
                    <mxGeometry relative="1" as="geometry">
                        <mxPoint x="610" y="395" as="targetPoint"/>
                    </mxGeometry>
                </mxCell>
                <mxCell id="c2dyJMnm67gJMsuvYjn9-44" value="Query" style="rounded=1;whiteSpace=wrap;html=1;" parent="1" vertex="1">
                    <mxGeometry x="445" y="380" width="120" height="60" as="geometry"/>
                </mxCell>
                <mxCell id="c2dyJMnm67gJMsuvYjn9-45" style="edgeStyle=none;html=1;exitX=0;exitY=0;exitDx=0;exitDy=52.5;exitPerimeter=0;fontColor=#f0efef;" parent="1" source="c2dyJMnm67gJMsuvYjn9-46" edge="1">
                    <mxGeometry relative="1" as="geometry">
                        <mxPoint x="570" y="423" as="targetPoint"/>
                    </mxGeometry>
                </mxCell>
                <mxCell id="c2dyJMnm67gJMsuvYjn9-46" value="DB" style="shape=cylinder3;whiteSpace=wrap;html=1;boundedLbl=1;backgroundOutline=1;size=15;" parent="1" vertex="1">
                    <mxGeometry x="620" y="370" width="80" height="80" as="geometry"/>
                </mxCell>
                <mxCell id="c2dyJMnm67gJMsuvYjn9-55" style="edgeStyle=none;html=1;exitX=1;exitY=0.25;exitDx=0;exitDy=0;entryX=0;entryY=0.75;entryDx=0;entryDy=0;" parent="1" source="c2dyJMnm67gJMsuvYjn9-51" target="c2dyJMnm67gJMsuvYjn9-54" edge="1">
                    <mxGeometry relative="1" as="geometry">
                        <Array as="points">
                            <mxPoint x="620" y="585"/>
                        </Array>
                    </mxGeometry>
                </mxCell>
                <mxCell id="c2dyJMnm67gJMsuvYjn9-57" style="edgeStyle=none;html=1;exitX=0.5;exitY=1;exitDx=0;exitDy=0;" parent="1" source="c2dyJMnm67gJMsuvYjn9-51" edge="1">
                    <mxGeometry relative="1" as="geometry">
                        <mxPoint x="80" y="670" as="targetPoint"/>
                        <Array as="points">
                            <mxPoint x="520" y="670"/>
                        </Array>
                    </mxGeometry>
                </mxCell>
                <mxCell id="c2dyJMnm67gJMsuvYjn9-51" value="Data" style="rounded=1;whiteSpace=wrap;html=1;" parent="1" vertex="1">
                    <mxGeometry x="460" y="570" width="120" height="60" as="geometry"/>
                </mxCell>
                <mxCell id="c2dyJMnm67gJMsuvYjn9-56" style="edgeStyle=none;html=1;exitX=0.5;exitY=1;exitDx=0;exitDy=0;entryX=0.75;entryY=1;entryDx=0;entryDy=0;" parent="1" source="c2dyJMnm67gJMsuvYjn9-54" target="c2dyJMnm67gJMsuvYjn9-51" edge="1">
                    <mxGeometry relative="1" as="geometry">
                        <Array as="points">
                            <mxPoint x="680" y="660"/>
                            <mxPoint x="550" y="660"/>
                        </Array>
                    </mxGeometry>
                </mxCell>
                <mxCell id="c2dyJMnm67gJMsuvYjn9-54" value="Token Verifier" style="shape=parallelogram;perimeter=parallelogramPerimeter;whiteSpace=wrap;html=1;fixedSize=1;" parent="1" vertex="1">
                    <mxGeometry x="620" y="570" width="120" height="60" as="geometry"/>
                </mxCell>
                <mxCell id="c2dyJMnm67gJMsuvYjn9-59" style="edgeStyle=none;html=1;exitX=0;exitY=0.5;exitDx=0;exitDy=0;entryX=0;entryY=0.5;entryDx=0;entryDy=0;" parent="1" target="c2dyJMnm67gJMsuvYjn9-58" edge="1">
                    <mxGeometry relative="1" as="geometry">
                        <mxPoint x="520" y="670" as="sourcePoint"/>
                        <Array as="points">
                            <mxPoint x="520" y="690"/>
                        </Array>
                    </mxGeometry>
                </mxCell>
                <mxCell id="c2dyJMnm67gJMsuvYjn9-58" value="Email verifier" style="shape=parallelogram;perimeter=parallelogramPerimeter;whiteSpace=wrap;html=1;fixedSize=1;" parent="1" vertex="1">
                    <mxGeometry x="690" y="660" width="120" height="60" as="geometry"/>
                </mxCell>
                <mxCell id="c2dyJMnm67gJMsuvYjn9-61" style="edgeStyle=none;html=1;exitX=0;exitY=0.5;exitDx=0;exitDy=0;entryX=0;entryY=0.5;entryDx=0;entryDy=0;" parent="1" target="c2dyJMnm67gJMsuvYjn9-60" edge="1">
                    <mxGeometry relative="1" as="geometry">
                        <mxPoint x="70" y="770" as="sourcePoint"/>
                    </mxGeometry>
                </mxCell>
                <mxCell id="e_jeuuXTX6cShOtsX4LM-3" style="edgeStyle=orthogonalEdgeStyle;html=1;exitX=1;exitY=0.25;exitDx=0;exitDy=0;entryX=0;entryY=0.5;entryDx=0;entryDy=0;" parent="1" source="c2dyJMnm67gJMsuvYjn9-60" target="e_jeuuXTX6cShOtsX4LM-1" edge="1">
                    <mxGeometry relative="1" as="geometry"/>
                </mxCell>
                <mxCell id="c2dyJMnm67gJMsuvYjn9-60" value="Coud services" style="rounded=0;whiteSpace=wrap;html=1;" parent="1" vertex="1">
                    <mxGeometry x="100" y="740" width="120" height="60" as="geometry"/>
                </mxCell>
                <mxCell id="e_jeuuXTX6cShOtsX4LM-10" style="edgeStyle=orthogonalEdgeStyle;html=1;exitX=1;exitY=0.5;exitDx=0;exitDy=0;entryX=0;entryY=0.5;entryDx=0;entryDy=0;" parent="1" source="e_jeuuXTX6cShOtsX4LM-1" target="e_jeuuXTX6cShOtsX4LM-9" edge="1">
                    <mxGeometry relative="1" as="geometry"/>
                </mxCell>
                <mxCell id="e_jeuuXTX6cShOtsX4LM-1" value="Google" style="rounded=1;whiteSpace=wrap;html=1;" parent="1" vertex="1">
                    <mxGeometry x="130" y="840" width="120" height="60" as="geometry"/>
                </mxCell>
                <mxCell id="e_jeuuXTX6cShOtsX4LM-5" style="edgeStyle=none;html=1;exitX=1;exitY=0.25;exitDx=0;exitDy=0;fontColor=#f0efef;" parent="1" source="e_jeuuXTX6cShOtsX4LM-6" edge="1">
                    <mxGeometry relative="1" as="geometry">
                        <mxPoint x="585" y="775" as="targetPoint"/>
                    </mxGeometry>
                </mxCell>
                <mxCell id="e_jeuuXTX6cShOtsX4LM-6" value="Query" style="rounded=1;whiteSpace=wrap;html=1;" parent="1" vertex="1">
                    <mxGeometry x="420" y="760" width="120" height="60" as="geometry"/>
                </mxCell>
                <mxCell id="e_jeuuXTX6cShOtsX4LM-7" style="edgeStyle=none;html=1;exitX=0;exitY=0;exitDx=0;exitDy=52.5;exitPerimeter=0;fontColor=#f0efef;" parent="1" source="e_jeuuXTX6cShOtsX4LM-8" edge="1">
                    <mxGeometry relative="1" as="geometry">
                        <mxPoint x="545" y="803" as="targetPoint"/>
                    </mxGeometry>
                </mxCell>
                <mxCell id="e_jeuuXTX6cShOtsX4LM-8" value="DB" style="shape=cylinder3;whiteSpace=wrap;html=1;boundedLbl=1;backgroundOutline=1;size=15;" parent="1" vertex="1">
                    <mxGeometry x="595" y="750" width="80" height="80" as="geometry"/>
                </mxCell>
                <mxCell id="e_jeuuXTX6cShOtsX4LM-14" style="edgeStyle=orthogonalEdgeStyle;html=1;exitX=0.5;exitY=1;exitDx=0;exitDy=0;entryX=0;entryY=0.5;entryDx=0;entryDy=0;" parent="1" source="e_jeuuXTX6cShOtsX4LM-9" target="e_jeuuXTX6cShOtsX4LM-13" edge="1">
                    <mxGeometry relative="1" as="geometry"/>
                </mxCell>
                <mxCell id="e_jeuuXTX6cShOtsX4LM-9" value="State" style="rounded=1;whiteSpace=wrap;html=1;" parent="1" vertex="1">
                    <mxGeometry x="290" y="840" width="120" height="60" as="geometry"/>
                </mxCell>
                <mxCell id="e_jeuuXTX6cShOtsX4LM-12" value="" style="endArrow=classic;startArrow=classic;html=1;entryX=0;entryY=0.5;entryDx=0;entryDy=0;" parent="1" target="e_jeuuXTX6cShOtsX4LM-6" edge="1">
                    <mxGeometry width="50" height="50" relative="1" as="geometry">
                        <mxPoint x="340" y="840" as="sourcePoint"/>
                        <mxPoint x="390" y="790" as="targetPoint"/>
                        <Array as="points">
                            <mxPoint x="340" y="790"/>
                        </Array>
                    </mxGeometry>
                </mxCell>
                <mxCell id="e_jeuuXTX6cShOtsX4LM-20" style="edgeStyle=orthogonalEdgeStyle;html=1;exitX=1;exitY=0.5;exitDx=0;exitDy=0;entryX=0;entryY=0.5;entryDx=0;entryDy=0;" parent="1" source="e_jeuuXTX6cShOtsX4LM-13" target="e_jeuuXTX6cShOtsX4LM-17" edge="1">
                    <mxGeometry relative="1" as="geometry"/>
                </mxCell>
                <mxCell id="e_jeuuXTX6cShOtsX4LM-13" value="Data?" style="rounded=1;whiteSpace=wrap;html=1;" parent="1" vertex="1">
                    <mxGeometry x="390" y="920" width="120" height="60" as="geometry"/>
                </mxCell>
                <mxCell id="e_jeuuXTX6cShOtsX4LM-16" style="edgeStyle=none;html=1;exitX=1;exitY=0.25;exitDx=0;exitDy=0;fontColor=#f0efef;" parent="1" source="e_jeuuXTX6cShOtsX4LM-17" edge="1">
                    <mxGeometry relative="1" as="geometry">
                        <mxPoint x="697.5" y="865" as="targetPoint"/>
                    </mxGeometry>
                </mxCell>
                <mxCell id="e_jeuuXTX6cShOtsX4LM-17" value="Command" style="rounded=1;whiteSpace=wrap;html=1;" parent="1" vertex="1">
                    <mxGeometry x="532.5" y="850" width="120" height="60" as="geometry"/>
                </mxCell>
                <mxCell id="e_jeuuXTX6cShOtsX4LM-18" style="edgeStyle=none;html=1;exitX=0;exitY=0;exitDx=0;exitDy=52.5;exitPerimeter=0;fontColor=#f0efef;" parent="1" source="e_jeuuXTX6cShOtsX4LM-19" edge="1">
                    <mxGeometry relative="1" as="geometry">
                        <mxPoint x="657.5" y="893" as="targetPoint"/>
                    </mxGeometry>
                </mxCell>
                <mxCell id="e_jeuuXTX6cShOtsX4LM-19" value="DB" style="shape=cylinder3;whiteSpace=wrap;html=1;boundedLbl=1;backgroundOutline=1;size=15;" parent="1" vertex="1">
                    <mxGeometry x="707.5" y="840" width="80" height="80" as="geometry"/>
                </mxCell>
                <mxCell id="e_jeuuXTX6cShOtsX4LM-28" style="edgeStyle=orthogonalEdgeStyle;html=1;exitX=0;exitY=0.75;exitDx=0;exitDy=0;entryX=0;entryY=0.5;entryDx=0;entryDy=0;" parent="1" source="e_jeuuXTX6cShOtsX4LM-13" target="e_jeuuXTX6cShOtsX4LM-26" edge="1">
                    <mxGeometry relative="1" as="geometry">
                        <Array as="points">
                            <mxPoint x="380" y="965"/>
                            <mxPoint x="380" y="990"/>
                            <mxPoint x="450" y="990"/>
                            <mxPoint x="450" y="1030"/>
                        </Array>
                    </mxGeometry>
                </mxCell>
                <mxCell id="e_jeuuXTX6cShOtsX4LM-30" style="edgeStyle=orthogonalEdgeStyle;html=1;exitX=1;exitY=0.5;exitDx=0;exitDy=0;entryX=0;entryY=0.5;entryDx=0;entryDy=0;" parent="1" source="e_jeuuXTX6cShOtsX4LM-26" target="e_jeuuXTX6cShOtsX4LM-29" edge="1">
                    <mxGeometry relative="1" as="geometry"/>
                </mxCell>
                <mxCell id="e_jeuuXTX6cShOtsX4LM-26" value="JWT" style="shape=parallelogram;perimeter=parallelogramPerimeter;whiteSpace=wrap;html=1;fixedSize=1;" parent="1" vertex="1">
                    <mxGeometry x="470" y="1000" width="120" height="60" as="geometry"/>
                </mxCell>
                <mxCell id="e_jeuuXTX6cShOtsX4LM-31" style="edgeStyle=orthogonalEdgeStyle;html=1;exitX=1;exitY=0.5;exitDx=0;exitDy=0;" parent="1" source="e_jeuuXTX6cShOtsX4LM-29" edge="1">
                    <mxGeometry relative="1" as="geometry">
                        <mxPoint x="70" y="1050" as="targetPoint"/>
                        <Array as="points">
                            <mxPoint x="760" y="1030"/>
                            <mxPoint x="760" y="1090"/>
                            <mxPoint x="340" y="1090"/>
                            <mxPoint x="340" y="1050"/>
                        </Array>
                    </mxGeometry>
                </mxCell>
                <mxCell id="e_jeuuXTX6cShOtsX4LM-29" value="Session" style="shape=parallelogram;perimeter=parallelogramPerimeter;whiteSpace=wrap;html=1;fixedSize=1;" parent="1" vertex="1">
                    <mxGeometry x="610" y="1000" width="120" height="60" as="geometry"/>
                </mxCell>
                <mxCell id="F1jNYsN5C3fRfYgu9U2P-2" style="edgeStyle=orthogonalEdgeStyle;html=1;exitX=0;exitY=0.5;exitDx=0;exitDy=0;entryX=0;entryY=0.5;entryDx=0;entryDy=0;" parent="1" target="F1jNYsN5C3fRfYgu9U2P-1" edge="1">
                    <mxGeometry relative="1" as="geometry">
                        <mxPoint x="60" y="1150" as="sourcePoint"/>
                    </mxGeometry>
                </mxCell>
                <mxCell id="F1jNYsN5C3fRfYgu9U2P-4" style="edgeStyle=orthogonalEdgeStyle;html=1;exitX=1;exitY=0.5;exitDx=0;exitDy=0;entryX=0;entryY=0.5;entryDx=0;entryDy=0;" parent="1" source="F1jNYsN5C3fRfYgu9U2P-1" target="F1jNYsN5C3fRfYgu9U2P-3" edge="1">
                    <mxGeometry relative="1" as="geometry"/>
                </mxCell>
                <mxCell id="F1jNYsN5C3fRfYgu9U2P-1" value="Logout" style="rounded=1;whiteSpace=wrap;html=1;" parent="1" vertex="1">
                    <mxGeometry x="100" y="1120" width="120" height="60" as="geometry"/>
                </mxCell>
                <mxCell id="F1jNYsN5C3fRfYgu9U2P-6" style="html=1;exitX=1;exitY=0.5;exitDx=0;exitDy=0;" parent="1" source="F1jNYsN5C3fRfYgu9U2P-3" edge="1">
                    <mxGeometry relative="1" as="geometry">
                        <mxPoint x="60" y="1200" as="targetPoint"/>
                        <Array as="points">
                            <mxPoint x="400" y="1150"/>
                            <mxPoint x="400" y="1200"/>
                        </Array>
                    </mxGeometry>
                </mxCell>
                <mxCell id="F1jNYsN5C3fRfYgu9U2P-3" value="Clean session" style="rounded=1;whiteSpace=wrap;html=1;" parent="1" vertex="1">
                    <mxGeometry x="260" y="1120" width="120" height="60" as="geometry"/>
                </mxCell>
            </root>
        </mxGraphModel>
    </diagram>
    <diagram id="el3rE_w6rXBz411lf_r_" name="Page-3">
        <mxGraphModel dx="1125" dy="416" grid="1" gridSize="10" guides="1" tooltips="1" connect="1" arrows="1" fold="1" page="1" pageScale="1" pageWidth="850" pageHeight="1400" math="0" shadow="0">
            <root>
                <mxCell id="0"/>
                <mxCell id="1" parent="0"/>
                <mxCell id="GeLCBH54VsaD1OzhR0PD-1" style="edgeStyle=none;html=1;exitX=1;exitY=0.25;exitDx=0;exitDy=0;fontColor=#f0efef;" parent="1" source="GeLCBH54VsaD1OzhR0PD-3" edge="1">
                    <mxGeometry relative="1" as="geometry">
                        <mxPoint x="550" y="410" as="targetPoint"/>
                    </mxGeometry>
                </mxCell>
                <mxCell id="GeLCBH54VsaD1OzhR0PD-2" style="edgeStyle=none;html=1;exitX=0;exitY=0.5;exitDx=0;exitDy=0;entryX=0;entryY=0.5;entryDx=0;entryDy=0;fontColor=#f0efef;" parent="1" source="GeLCBH54VsaD1OzhR0PD-3" target="GeLCBH54VsaD1OzhR0PD-11" edge="1">
                    <mxGeometry relative="1" as="geometry">
                        <Array as="points">
                            <mxPoint x="330" y="430"/>
                            <mxPoint x="330" y="500"/>
                            <mxPoint x="340" y="510"/>
                        </Array>
                    </mxGeometry>
                </mxCell>
                <mxCell id="GeLCBH54VsaD1OzhR0PD-3" value="Actuatror" style="shape=document;whiteSpace=wrap;html=1;boundedLbl=1;fontColor=#f0efef;" parent="1" vertex="1">
                    <mxGeometry x="355" y="390" width="120" height="80" as="geometry"/>
                </mxCell>
                <mxCell id="GeLCBH54VsaD1OzhR0PD-4" style="edgeStyle=none;html=1;exitX=0;exitY=0.5;exitDx=0;exitDy=0;fontColor=#f0efef;" parent="1" source="GeLCBH54VsaD1OzhR0PD-6" edge="1">
                    <mxGeometry relative="1" as="geometry">
                        <mxPoint x="480" y="430" as="targetPoint"/>
                    </mxGeometry>
                </mxCell>
                <mxCell id="GeLCBH54VsaD1OzhR0PD-5" style="edgeStyle=none;html=1;exitX=1;exitY=0.25;exitDx=0;exitDy=0;fontColor=#f0efef;" parent="1" source="GeLCBH54VsaD1OzhR0PD-6" edge="1">
                    <mxGeometry relative="1" as="geometry">
                        <mxPoint x="720" y="415" as="targetPoint"/>
                    </mxGeometry>
                </mxCell>
                <mxCell id="GeLCBH54VsaD1OzhR0PD-6" value="Query" style="rounded=1;whiteSpace=wrap;html=1;" parent="1" vertex="1">
                    <mxGeometry x="555" y="400" width="120" height="60" as="geometry"/>
                </mxCell>
                <mxCell id="GeLCBH54VsaD1OzhR0PD-7" style="edgeStyle=none;html=1;exitX=0;exitY=0;exitDx=0;exitDy=52.5;exitPerimeter=0;fontColor=#f0efef;" parent="1" source="GeLCBH54VsaD1OzhR0PD-8" edge="1">
                    <mxGeometry relative="1" as="geometry">
                        <mxPoint x="680" y="443" as="targetPoint"/>
                    </mxGeometry>
                </mxCell>
                <mxCell id="GeLCBH54VsaD1OzhR0PD-8" value="DB" style="shape=cylinder3;whiteSpace=wrap;html=1;boundedLbl=1;backgroundOutline=1;size=15;" parent="1" vertex="1">
                    <mxGeometry x="730" y="390" width="80" height="80" as="geometry"/>
                </mxCell>
                <mxCell id="GeLCBH54VsaD1OzhR0PD-9" style="edgeStyle=none;html=1;exitX=0.25;exitY=1;exitDx=0;exitDy=0;fontColor=#f0efef;" parent="1" source="GeLCBH54VsaD1OzhR0PD-11" edge="1">
                    <mxGeometry relative="1" as="geometry">
                        <mxPoint x="70" y="480" as="targetPoint"/>
                        <Array as="points">
                            <mxPoint x="500" y="590"/>
                            <mxPoint x="330" y="590"/>
                            <mxPoint x="310" y="590"/>
                            <mxPoint x="310" y="480"/>
                        </Array>
                    </mxGeometry>
                </mxCell>
                <mxCell id="GeLCBH54VsaD1OzhR0PD-10" style="edgeStyle=none;html=1;exitX=1;exitY=0.5;exitDx=0;exitDy=0;entryX=-0.017;entryY=0.363;entryDx=0;entryDy=0;entryPerimeter=0;fontColor=#f0efef;" parent="1" source="GeLCBH54VsaD1OzhR0PD-11" target="GeLCBH54VsaD1OzhR0PD-12" edge="1">
                    <mxGeometry relative="1" as="geometry"/>
                </mxCell>
                <mxCell id="GeLCBH54VsaD1OzhR0PD-11" value="Data?" style="rounded=1;whiteSpace=wrap;html=1;fontColor=#f0efef;" parent="1" vertex="1">
                    <mxGeometry x="470" y="480" width="120" height="60" as="geometry"/>
                </mxCell>
                <mxCell id="GeLCBH54VsaD1OzhR0PD-12" value="Email" style="shape=document;whiteSpace=wrap;html=1;boundedLbl=1;fontColor=#f0efef;" parent="1" vertex="1">
                    <mxGeometry x="670" y="480" width="120" height="80" as="geometry"/>
                </mxCell>
                <mxCell id="GeLCBH54VsaD1OzhR0PD-13" style="edgeStyle=none;html=1;exitX=1;exitY=0.5;exitDx=0;exitDy=0;fontColor=#f0efef;" parent="1" source="GeLCBH54VsaD1OzhR0PD-15" edge="1">
                    <mxGeometry relative="1" as="geometry">
                        <mxPoint x="350" y="410" as="targetPoint"/>
                    </mxGeometry>
                </mxCell>
                <mxCell id="GeLCBH54VsaD1OzhR0PD-14" style="edgeStyle=none;html=1;exitX=0;exitY=0.5;exitDx=0;exitDy=0;fontColor=#f0efef;entryX=0;entryY=0.5;entryDx=0;entryDy=0;" parent="1" target="GeLCBH54VsaD1OzhR0PD-15" edge="1">
                    <mxGeometry relative="1" as="geometry">
                        <mxPoint x="70" y="410" as="sourcePoint"/>
                    </mxGeometry>
                </mxCell>
                <mxCell id="GeLCBH54VsaD1OzhR0PD-15" value="Step1" style="rounded=1;whiteSpace=wrap;html=1;fontColor=#f0efef;" parent="1" vertex="1">
                    <mxGeometry x="120" y="380" width="120" height="60" as="geometry"/>
                </mxCell>
                <mxCell id="GeLCBH54VsaD1OzhR0PD-16" style="edgeStyle=none;html=1;exitX=0;exitY=0.5;exitDx=0;exitDy=0;entryX=0;entryY=0.5;entryDx=0;entryDy=0;" parent="1" target="GeLCBH54VsaD1OzhR0PD-18" edge="1">
                    <mxGeometry relative="1" as="geometry">
                        <mxPoint x="70" y="690" as="sourcePoint"/>
                    </mxGeometry>
                </mxCell>
                <mxCell id="GeLCBH54VsaD1OzhR0PD-17" style="edgeStyle=none;html=1;exitX=1;exitY=0.5;exitDx=0;exitDy=0;entryX=0;entryY=0.25;entryDx=0;entryDy=0;" parent="1" source="GeLCBH54VsaD1OzhR0PD-18" target="GeLCBH54VsaD1OzhR0PD-20" edge="1">
                    <mxGeometry relative="1" as="geometry"/>
                </mxCell>
                <mxCell id="GeLCBH54VsaD1OzhR0PD-18" value="Step2" style="rounded=1;whiteSpace=wrap;html=1;" parent="1" vertex="1">
                    <mxGeometry x="120" y="660" width="120" height="60" as="geometry"/>
                </mxCell>
                <mxCell id="N-1VNr8DuTF6OoSv3UW1-12" style="edgeStyle=orthogonalEdgeStyle;html=1;exitX=1;exitY=0.25;exitDx=0;exitDy=0;entryX=0;entryY=0.25;entryDx=0;entryDy=0;" parent="1" source="GeLCBH54VsaD1OzhR0PD-20" target="N-1VNr8DuTF6OoSv3UW1-11" edge="1">
                    <mxGeometry relative="1" as="geometry"/>
                </mxCell>
                <mxCell id="GeLCBH54VsaD1OzhR0PD-20" value="Actuator" style="shape=document;whiteSpace=wrap;html=1;boundedLbl=1;" parent="1" vertex="1">
                    <mxGeometry x="270" y="670" width="120" height="80" as="geometry"/>
                </mxCell>
                <mxCell id="GeLCBH54VsaD1OzhR0PD-21" style="edgeStyle=none;html=1;exitX=0.625;exitY=0;exitDx=0;exitDy=0;entryX=0.008;entryY=0.367;entryDx=0;entryDy=0;entryPerimeter=0;" parent="1" source="GeLCBH54VsaD1OzhR0PD-25" target="GeLCBH54VsaD1OzhR0PD-27" edge="1">
                    <mxGeometry relative="1" as="geometry">
                        <Array as="points">
                            <mxPoint x="560" y="690"/>
                        </Array>
                    </mxGeometry>
                </mxCell>
                <mxCell id="GeLCBH54VsaD1OzhR0PD-22" style="edgeStyle=none;html=1;exitX=1;exitY=0.5;exitDx=0;exitDy=0;entryX=0.75;entryY=0;entryDx=0;entryDy=0;" parent="1" source="GeLCBH54VsaD1OzhR0PD-25" target="GeLCBH54VsaD1OzhR0PD-29" edge="1">
                    <mxGeometry relative="1" as="geometry">
                        <Array as="points">
                            <mxPoint x="670" y="785"/>
                        </Array>
                    </mxGeometry>
                </mxCell>
                <mxCell id="GeLCBH54VsaD1OzhR0PD-23" style="edgeStyle=none;html=1;exitX=0.25;exitY=0;exitDx=0;exitDy=0;entryX=0.625;entryY=1;entryDx=0;entryDy=0;" parent="1" source="GeLCBH54VsaD1OzhR0PD-29" target="GeLCBH54VsaD1OzhR0PD-25" edge="1">
                    <mxGeometry relative="1" as="geometry">
                        <Array as="points">
                            <mxPoint x="610" y="830"/>
                            <mxPoint x="563" y="830"/>
                        </Array>
                    </mxGeometry>
                </mxCell>
                <mxCell id="GeLCBH54VsaD1OzhR0PD-24" style="edgeStyle=none;html=1;exitX=0;exitY=0.5;exitDx=0;exitDy=0;" parent="1" source="GeLCBH54VsaD1OzhR0PD-25" edge="1">
                    <mxGeometry relative="1" as="geometry">
                        <mxPoint x="70" y="785" as="targetPoint"/>
                    </mxGeometry>
                </mxCell>
                <mxCell id="GeLCBH54VsaD1OzhR0PD-25" value="Data?" style="shape=hexagon;perimeter=hexagonPerimeter2;whiteSpace=wrap;html=1;fixedSize=1;" parent="1" vertex="1">
                    <mxGeometry x="500" y="760" width="100" height="50" as="geometry"/>
                </mxCell>
                <mxCell id="GeLCBH54VsaD1OzhR0PD-26" style="edgeStyle=none;html=1;exitX=1;exitY=0.75;exitDx=0;exitDy=0;" parent="1" source="GeLCBH54VsaD1OzhR0PD-27" edge="1">
                    <mxGeometry relative="1" as="geometry">
                        <mxPoint x="750" y="715" as="targetPoint"/>
                    </mxGeometry>
                </mxCell>
                <mxCell id="GeLCBH54VsaD1OzhR0PD-27" value="Query" style="rounded=1;whiteSpace=wrap;html=1;" parent="1" vertex="1">
                    <mxGeometry x="600" y="670" width="120" height="60" as="geometry"/>
                </mxCell>
                <mxCell id="GeLCBH54VsaD1OzhR0PD-28" style="edgeStyle=none;html=1;exitX=1;exitY=0.25;exitDx=0;exitDy=0;" parent="1" source="GeLCBH54VsaD1OzhR0PD-29" edge="1">
                    <mxGeometry relative="1" as="geometry">
                        <mxPoint x="730" y="860" as="targetPoint"/>
                    </mxGeometry>
                </mxCell>
                <mxCell id="GeLCBH54VsaD1OzhR0PD-29" value="Command" style="rounded=1;whiteSpace=wrap;html=1;" parent="1" vertex="1">
                    <mxGeometry x="580" y="845" width="120" height="60" as="geometry"/>
                </mxCell>
                <mxCell id="GeLCBH54VsaD1OzhR0PD-30" style="edgeStyle=none;html=1;exitX=0;exitY=0;exitDx=0;exitDy=27.5;exitPerimeter=0;" parent="1" source="GeLCBH54VsaD1OzhR0PD-31" edge="1">
                    <mxGeometry relative="1" as="geometry">
                        <mxPoint x="730" y="678" as="targetPoint"/>
                    </mxGeometry>
                </mxCell>
                <mxCell id="GeLCBH54VsaD1OzhR0PD-31" value="DB" style="shape=cylinder3;whiteSpace=wrap;html=1;boundedLbl=1;backgroundOutline=1;size=15;" parent="1" vertex="1">
                    <mxGeometry x="760" y="650" width="80" height="80" as="geometry"/>
                </mxCell>
                <mxCell id="GeLCBH54VsaD1OzhR0PD-32" style="edgeStyle=none;html=1;exitX=0;exitY=0;exitDx=0;exitDy=52.5;exitPerimeter=0;" parent="1" source="GeLCBH54VsaD1OzhR0PD-33" edge="1">
                    <mxGeometry relative="1" as="geometry">
                        <mxPoint x="710" y="888" as="targetPoint"/>
                    </mxGeometry>
                </mxCell>
                <mxCell id="GeLCBH54VsaD1OzhR0PD-33" value="DB" style="shape=cylinder3;whiteSpace=wrap;html=1;boundedLbl=1;backgroundOutline=1;size=15;" parent="1" vertex="1">
                    <mxGeometry x="740" y="835" width="80" height="80" as="geometry"/>
                </mxCell>
                <mxCell id="wMXtxgUcK-haxjHEaf88-1" value="" style="shape=flexArrow;endArrow=classic;startArrow=classic;html=1;" parent="1" edge="1">
                    <mxGeometry width="100" height="100" relative="1" as="geometry">
                        <mxPoint x="40" y="880" as="sourcePoint"/>
                        <mxPoint x="40" y="330" as="targetPoint"/>
                    </mxGeometry>
                </mxCell>
                <mxCell id="N-1VNr8DuTF6OoSv3UW1-9" style="edgeStyle=orthogonalEdgeStyle;html=1;entryX=0;entryY=0.5;entryDx=0;entryDy=0;" parent="1" target="N-1VNr8DuTF6OoSv3UW1-8" edge="1">
                    <mxGeometry relative="1" as="geometry">
                        <mxPoint x="520" y="550" as="sourcePoint"/>
                        <Array as="points">
                            <mxPoint x="520" y="550"/>
                            <mxPoint x="520" y="600"/>
                        </Array>
                    </mxGeometry>
                </mxCell>
                <mxCell id="N-1VNr8DuTF6OoSv3UW1-10" style="edgeStyle=orthogonalEdgeStyle;html=1;exitX=0.5;exitY=0;exitDx=0;exitDy=0;entryX=1;entryY=0.75;entryDx=0;entryDy=0;" parent="1" source="N-1VNr8DuTF6OoSv3UW1-8" target="GeLCBH54VsaD1OzhR0PD-11" edge="1">
                    <mxGeometry relative="1" as="geometry"/>
                </mxCell>
                <mxCell id="N-1VNr8DuTF6OoSv3UW1-8" value="Token verifier" style="shape=parallelogram;perimeter=parallelogramPerimeter;whiteSpace=wrap;html=1;fixedSize=1;" parent="1" vertex="1">
                    <mxGeometry x="555" y="570" width="120" height="60" as="geometry"/>
                </mxCell>
                <mxCell id="N-1VNr8DuTF6OoSv3UW1-13" style="edgeStyle=orthogonalEdgeStyle;html=1;exitX=1;exitY=0.25;exitDx=0;exitDy=0;entryX=0.5;entryY=0;entryDx=0;entryDy=0;" parent="1" source="N-1VNr8DuTF6OoSv3UW1-11" target="GeLCBH54VsaD1OzhR0PD-25" edge="1">
                    <mxGeometry relative="1" as="geometry"/>
                </mxCell>
                <mxCell id="N-1VNr8DuTF6OoSv3UW1-11" value="Validator" style="shape=document;whiteSpace=wrap;html=1;boundedLbl=1;" parent="1" vertex="1">
                    <mxGeometry x="410" y="670" width="120" height="80" as="geometry"/>
                </mxCell>
                <mxCell id="N-1VNr8DuTF6OoSv3UW1-14" value="Make email recovery" style="text;html=1;align=center;verticalAlign=middle;resizable=0;points=[];autosize=1;strokeColor=none;fillColor=none;" parent="1" vertex="1">
                    <mxGeometry x="220" y="330" width="130" height="30" as="geometry"/>
                </mxCell>
                <mxCell id="N-1VNr8DuTF6OoSv3UW1-15" value="Validate email recovery" style="text;html=1;align=center;verticalAlign=middle;resizable=0;points=[];autosize=1;strokeColor=none;fillColor=none;" parent="1" vertex="1">
                    <mxGeometry x="210" y="620" width="150" height="30" as="geometry"/>
                </mxCell>
                <mxCell id="UwPlgLgM9w3BBE2NDy92-1" value="Response" style="ellipse;whiteSpace=wrap;html=1;aspect=fixed;fontColor=#f0efef;" parent="1" vertex="1">
                    <mxGeometry x="10" y="905" width="70" height="70" as="geometry"/>
                </mxCell>
            </root>
        </mxGraphModel>
    </diagram>
    <diagram id="hrlzDhBJ5zbaK8C4mR5X" name="Page-4">
        <mxGraphModel dx="1125" dy="416" grid="1" gridSize="10" guides="1" tooltips="1" connect="1" arrows="1" fold="1" page="1" pageScale="1" pageWidth="850" pageHeight="1400" math="0" shadow="0">
            <root>
                <mxCell id="0"/>
                <mxCell id="1" parent="0"/>
                <mxCell id="7Fad6hN6Xi5AobQx8gWH-1" value="" style="shape=flexArrow;endArrow=classic;startArrow=classic;html=1;" parent="1" edge="1">
                    <mxGeometry width="100" height="100" relative="1" as="geometry">
                        <mxPoint x="60" y="1370" as="sourcePoint"/>
                        <mxPoint x="50" y="30" as="targetPoint"/>
                    </mxGeometry>
                </mxCell>
                <mxCell id="iquD6AGOMWhDviZPE06X-1" style="edgeStyle=orthogonalEdgeStyle;html=1;exitX=0;exitY=0.5;exitDx=0;exitDy=0;entryX=0;entryY=0.5;entryDx=0;entryDy=0;" parent="1" target="7Fad6hN6Xi5AobQx8gWH-2" edge="1">
                    <mxGeometry relative="1" as="geometry">
                        <mxPoint x="60" y="110" as="sourcePoint"/>
                    </mxGeometry>
                </mxCell>
                <mxCell id="iquD6AGOMWhDviZPE06X-3" style="edgeStyle=orthogonalEdgeStyle;html=1;exitX=1;exitY=0.5;exitDx=0;exitDy=0;entryX=0;entryY=0.5;entryDx=0;entryDy=0;" parent="1" source="7Fad6hN6Xi5AobQx8gWH-2" target="iquD6AGOMWhDviZPE06X-2" edge="1">
                    <mxGeometry relative="1" as="geometry"/>
                </mxCell>
                <mxCell id="-w5ycZlwQJK6pzRCFUy6-9" style="edgeStyle=orthogonalEdgeStyle;html=1;exitX=0.5;exitY=1;exitDx=0;exitDy=0;entryX=0;entryY=0.5;entryDx=0;entryDy=0;" parent="1" source="7Fad6hN6Xi5AobQx8gWH-2" target="-w5ycZlwQJK6pzRCFUy6-8" edge="1">
                    <mxGeometry relative="1" as="geometry"/>
                </mxCell>
                <mxCell id="7Fad6hN6Xi5AobQx8gWH-2" value="Profile" style="rounded=1;whiteSpace=wrap;html=1;" parent="1" vertex="1">
                    <mxGeometry x="100" y="80" width="120" height="60" as="geometry"/>
                </mxCell>
                <mxCell id="iquD6AGOMWhDviZPE06X-5" style="edgeStyle=orthogonalEdgeStyle;html=1;exitX=1;exitY=0.5;exitDx=0;exitDy=0;entryX=0;entryY=0.5;entryDx=0;entryDy=0;" parent="1" source="iquD6AGOMWhDviZPE06X-2" target="iquD6AGOMWhDviZPE06X-4" edge="1">
                    <mxGeometry relative="1" as="geometry"/>
                </mxCell>
                <mxCell id="iquD6AGOMWhDviZPE06X-2" value="Validate jwt" style="rounded=1;whiteSpace=wrap;html=1;" parent="1" vertex="1">
                    <mxGeometry x="250" y="130" width="120" height="60" as="geometry"/>
                </mxCell>
                <mxCell id="-w5ycZlwQJK6pzRCFUy6-6" style="edgeStyle=orthogonalEdgeStyle;html=1;exitX=0.25;exitY=0;exitDx=0;exitDy=0;entryX=0;entryY=0.5;entryDx=0;entryDy=0;" parent="1" source="iquD6AGOMWhDviZPE06X-4" target="-w5ycZlwQJK6pzRCFUy6-2" edge="1">
                    <mxGeometry relative="1" as="geometry"/>
                </mxCell>
                <mxCell id="-w5ycZlwQJK6pzRCFUy6-11" style="edgeStyle=none;html=1;exitX=0.25;exitY=1;exitDx=0;exitDy=0;" parent="1" source="iquD6AGOMWhDviZPE06X-4" edge="1">
                    <mxGeometry relative="1" as="geometry">
                        <mxPoint x="320" y="310" as="targetPoint"/>
                        <Array as="points">
                            <mxPoint x="420" y="210"/>
                            <mxPoint x="320" y="210"/>
                        </Array>
                    </mxGeometry>
                </mxCell>
                <mxCell id="iquD6AGOMWhDviZPE06X-4" value="Payload?" style="rounded=1;whiteSpace=wrap;html=1;" parent="1" vertex="1">
                    <mxGeometry x="390" y="130" width="120" height="60" as="geometry"/>
                </mxCell>
                <mxCell id="-w5ycZlwQJK6pzRCFUy6-1" style="edgeStyle=none;html=1;exitX=1;exitY=0.25;exitDx=0;exitDy=0;fontColor=#f0efef;" parent="1" source="-w5ycZlwQJK6pzRCFUy6-2" edge="1">
                    <mxGeometry relative="1" as="geometry">
                        <mxPoint x="665" y="55" as="targetPoint"/>
                    </mxGeometry>
                </mxCell>
                <mxCell id="-w5ycZlwQJK6pzRCFUy6-7" style="edgeStyle=orthogonalEdgeStyle;html=1;exitX=0.25;exitY=1;exitDx=0;exitDy=0;entryX=1;entryY=0.5;entryDx=0;entryDy=0;" parent="1" source="-w5ycZlwQJK6pzRCFUy6-2" target="iquD6AGOMWhDviZPE06X-4" edge="1">
                    <mxGeometry relative="1" as="geometry"/>
                </mxCell>
                <mxCell id="-w5ycZlwQJK6pzRCFUy6-2" value="Query" style="rounded=1;whiteSpace=wrap;html=1;" parent="1" vertex="1">
                    <mxGeometry x="500" y="40" width="120" height="60" as="geometry"/>
                </mxCell>
                <mxCell id="-w5ycZlwQJK6pzRCFUy6-3" style="edgeStyle=none;html=1;exitX=0;exitY=0;exitDx=0;exitDy=52.5;exitPerimeter=0;fontColor=#f0efef;" parent="1" source="-w5ycZlwQJK6pzRCFUy6-4" edge="1">
                    <mxGeometry relative="1" as="geometry">
                        <mxPoint x="625" y="83" as="targetPoint"/>
                    </mxGeometry>
                </mxCell>
                <mxCell id="-w5ycZlwQJK6pzRCFUy6-4" value="DB" style="shape=cylinder3;whiteSpace=wrap;html=1;boundedLbl=1;backgroundOutline=1;size=15;" parent="1" vertex="1">
                    <mxGeometry x="675" y="30" width="80" height="80" as="geometry"/>
                </mxCell>
                <mxCell id="-w5ycZlwQJK6pzRCFUy6-10" style="html=1;exitX=0.5;exitY=1;exitDx=0;exitDy=0;" parent="1" source="-w5ycZlwQJK6pzRCFUy6-8" edge="1">
                    <mxGeometry relative="1" as="geometry">
                        <mxPoint x="60" y="310" as="targetPoint"/>
                        <Array as="points">
                            <mxPoint x="490" y="310"/>
                            <mxPoint x="280" y="310"/>
                        </Array>
                    </mxGeometry>
                </mxCell>
                <mxCell id="-w5ycZlwQJK6pzRCFUy6-20" style="edgeStyle=orthogonalEdgeStyle;html=1;exitX=1;exitY=0.5;exitDx=0;exitDy=0;entryX=0;entryY=0.5;entryDx=0;entryDy=0;" parent="1" source="-w5ycZlwQJK6pzRCFUy6-8" target="-w5ycZlwQJK6pzRCFUy6-14" edge="1">
                    <mxGeometry relative="1" as="geometry">
                        <Array as="points">
                            <mxPoint x="560" y="240"/>
                            <mxPoint x="560" y="330"/>
                            <mxPoint x="120" y="330"/>
                            <mxPoint x="120" y="490"/>
                        </Array>
                    </mxGeometry>
                </mxCell>
                <mxCell id="-w5ycZlwQJK6pzRCFUy6-8" value="Session?" style="rounded=1;whiteSpace=wrap;html=1;" parent="1" vertex="1">
                    <mxGeometry x="430" y="210" width="120" height="60" as="geometry"/>
                </mxCell>
                <mxCell id="-w5ycZlwQJK6pzRCFUy6-12" style="edgeStyle=orthogonalEdgeStyle;html=1;exitX=1;exitY=0.5;exitDx=0;exitDy=0;entryX=0;entryY=0.5;entryDx=0;entryDy=0;" parent="1" target="-w5ycZlwQJK6pzRCFUy6-14" edge="1">
                    <mxGeometry relative="1" as="geometry">
                        <mxPoint x="165" y="490" as="sourcePoint"/>
                    </mxGeometry>
                </mxCell>
                <mxCell id="-w5ycZlwQJK6pzRCFUy6-13" style="edgeStyle=orthogonalEdgeStyle;html=1;exitX=0.25;exitY=0;exitDx=0;exitDy=0;entryX=0;entryY=0.5;entryDx=0;entryDy=0;" parent="1" source="-w5ycZlwQJK6pzRCFUy6-14" target="-w5ycZlwQJK6pzRCFUy6-17" edge="1">
                    <mxGeometry relative="1" as="geometry"/>
                </mxCell>
                <mxCell id="-w5ycZlwQJK6pzRCFUy6-22" style="edgeStyle=orthogonalEdgeStyle;html=1;exitX=0.5;exitY=1;exitDx=0;exitDy=0;entryX=0;entryY=0.5;entryDx=0;entryDy=0;" parent="1" source="-w5ycZlwQJK6pzRCFUy6-14" target="-w5ycZlwQJK6pzRCFUy6-21" edge="1">
                    <mxGeometry relative="1" as="geometry"/>
                </mxCell>
                <mxCell id="-w5ycZlwQJK6pzRCFUy6-23" style="html=1;exitX=0.25;exitY=1;exitDx=0;exitDy=0;" parent="1" source="-w5ycZlwQJK6pzRCFUy6-14" edge="1">
                    <mxGeometry relative="1" as="geometry">
                        <mxPoint x="70" y="570" as="targetPoint"/>
                        <Array as="points">
                            <mxPoint x="215" y="570"/>
                        </Array>
                    </mxGeometry>
                </mxCell>
                <mxCell id="-w5ycZlwQJK6pzRCFUy6-14" value="Payload?" style="rounded=1;whiteSpace=wrap;html=1;" parent="1" vertex="1">
                    <mxGeometry x="185" y="460" width="120" height="60" as="geometry"/>
                </mxCell>
                <mxCell id="-w5ycZlwQJK6pzRCFUy6-15" style="edgeStyle=none;html=1;exitX=1;exitY=0.25;exitDx=0;exitDy=0;fontColor=#f0efef;" parent="1" source="-w5ycZlwQJK6pzRCFUy6-17" edge="1">
                    <mxGeometry relative="1" as="geometry">
                        <mxPoint x="460" y="385" as="targetPoint"/>
                    </mxGeometry>
                </mxCell>
                <mxCell id="-w5ycZlwQJK6pzRCFUy6-16" style="edgeStyle=orthogonalEdgeStyle;html=1;exitX=0.25;exitY=1;exitDx=0;exitDy=0;entryX=1;entryY=0.5;entryDx=0;entryDy=0;" parent="1" source="-w5ycZlwQJK6pzRCFUy6-17" target="-w5ycZlwQJK6pzRCFUy6-14" edge="1">
                    <mxGeometry relative="1" as="geometry"/>
                </mxCell>
                <mxCell id="-w5ycZlwQJK6pzRCFUy6-17" value="Query" style="rounded=1;whiteSpace=wrap;html=1;" parent="1" vertex="1">
                    <mxGeometry x="295" y="370" width="120" height="60" as="geometry"/>
                </mxCell>
                <mxCell id="-w5ycZlwQJK6pzRCFUy6-18" style="edgeStyle=none;html=1;exitX=0;exitY=0;exitDx=0;exitDy=52.5;exitPerimeter=0;fontColor=#f0efef;" parent="1" source="-w5ycZlwQJK6pzRCFUy6-19" edge="1">
                    <mxGeometry relative="1" as="geometry">
                        <mxPoint x="420" y="413" as="targetPoint"/>
                    </mxGeometry>
                </mxCell>
                <mxCell id="-w5ycZlwQJK6pzRCFUy6-19" value="DB" style="shape=cylinder3;whiteSpace=wrap;html=1;boundedLbl=1;backgroundOutline=1;size=15;" parent="1" vertex="1">
                    <mxGeometry x="470" y="360" width="80" height="80" as="geometry"/>
                </mxCell>
                <mxCell id="-w5ycZlwQJK6pzRCFUy6-26" style="edgeStyle=none;html=1;exitX=0;exitY=0.75;exitDx=0;exitDy=0;entryX=0.5;entryY=0;entryDx=0;entryDy=0;" parent="1" source="-w5ycZlwQJK6pzRCFUy6-21" target="-w5ycZlwQJK6pzRCFUy6-24" edge="1">
                    <mxGeometry relative="1" as="geometry">
                        <Array as="points">
                            <mxPoint x="340" y="540"/>
                        </Array>
                    </mxGeometry>
                </mxCell>
                <mxCell id="-w5ycZlwQJK6pzRCFUy6-21" value="Update JWT" style="rounded=1;whiteSpace=wrap;html=1;" parent="1" vertex="1">
                    <mxGeometry x="350" y="500" width="120" height="60" as="geometry"/>
                </mxCell>
                <mxCell id="-w5ycZlwQJK6pzRCFUy6-28" style="edgeStyle=none;html=1;exitX=0.75;exitY=1;exitDx=0;exitDy=0;entryX=0.25;entryY=0;entryDx=0;entryDy=0;" parent="1" source="-w5ycZlwQJK6pzRCFUy6-14" target="-w5ycZlwQJK6pzRCFUy6-24" edge="1">
                    <mxGeometry relative="1" as="geometry">
                        <Array as="points">
                            <mxPoint x="275" y="570"/>
                            <mxPoint x="310" y="570"/>
                        </Array>
                    </mxGeometry>
                </mxCell>
                <mxCell id="-w5ycZlwQJK6pzRCFUy6-29" style="edgeStyle=none;html=1;exitX=0;exitY=0.5;exitDx=0;exitDy=0;" parent="1" source="-w5ycZlwQJK6pzRCFUy6-24" edge="1">
                    <mxGeometry relative="1" as="geometry">
                        <mxPoint x="70" y="620" as="targetPoint"/>
                    </mxGeometry>
                </mxCell>
                <mxCell id="-w5ycZlwQJK6pzRCFUy6-24" value="Payload updated" style="rounded=1;whiteSpace=wrap;html=1;" parent="1" vertex="1">
                    <mxGeometry x="280" y="590" width="120" height="60" as="geometry"/>
                </mxCell>
            </root>
        </mxGraphModel>
    </diagram>
    <diagram id="OU8dMpLkQSXxIXsCepSo" name="Page-5">
        <mxGraphModel dx="1386" dy="773" grid="1" gridSize="10" guides="1" tooltips="1" connect="1" arrows="1" fold="1" page="1" pageScale="1" pageWidth="850" pageHeight="1400" math="0" shadow="0">
            <root>
                <mxCell id="0"/>
                <mxCell id="1" parent="0"/>
                <mxCell id="ISWj-cwBgWtQ8wU5Tn5H-1" value="" style="shape=flexArrow;endArrow=classic;startArrow=classic;html=1;" edge="1" parent="1">
                    <mxGeometry width="100" height="100" relative="1" as="geometry">
                        <mxPoint x="40" y="1260" as="sourcePoint"/>
                        <mxPoint x="40" y="30" as="targetPoint"/>
                    </mxGeometry>
                </mxCell>
                <mxCell id="ISWj-cwBgWtQ8wU5Tn5H-3" style="edgeStyle=none;html=1;exitX=0;exitY=0.5;exitDx=0;exitDy=0;entryX=0;entryY=0.5;entryDx=0;entryDy=0;" edge="1" parent="1" target="ISWj-cwBgWtQ8wU5Tn5H-2">
                    <mxGeometry relative="1" as="geometry">
                        <mxPoint x="50" y="640" as="sourcePoint"/>
                    </mxGeometry>
                </mxCell>
                <mxCell id="Qi-mnrDlcUsoXCxiNHGz-45" style="edgeStyle=orthogonalEdgeStyle;html=1;exitX=1;exitY=0.5;exitDx=0;exitDy=0;entryX=0.25;entryY=0;entryDx=0;entryDy=0;" edge="1" parent="1" source="ISWj-cwBgWtQ8wU5Tn5H-2" target="hF3pJDBEkqDIrYdnE4Bi-4">
                    <mxGeometry relative="1" as="geometry"/>
                </mxCell>
                <mxCell id="ISWj-cwBgWtQ8wU5Tn5H-2" value="Security middleware" style="rounded=1;whiteSpace=wrap;html=1;" vertex="1" parent="1">
                    <mxGeometry x="90" y="610" width="120" height="60" as="geometry"/>
                </mxCell>
                <mxCell id="Qi-mnrDlcUsoXCxiNHGz-44" style="edgeStyle=orthogonalEdgeStyle;html=1;exitX=1;exitY=0.5;exitDx=0;exitDy=0;entryX=0.5;entryY=0;entryDx=0;entryDy=0;" edge="1" parent="1" source="hF3pJDBEkqDIrYdnE4Bi-3" target="Qi-mnrDlcUsoXCxiNHGz-43">
                    <mxGeometry relative="1" as="geometry"/>
                </mxCell>
                <mxCell id="hF3pJDBEkqDIrYdnE4Bi-3" value="IsFingerprint?" style="rounded=1;whiteSpace=wrap;html=1;" vertex="1" parent="1">
                    <mxGeometry x="340" y="600" width="120" height="60" as="geometry"/>
                </mxCell>
                <mxCell id="Qi-mnrDlcUsoXCxiNHGz-50" style="edgeStyle=orthogonalEdgeStyle;html=1;exitX=1;exitY=0.5;exitDx=0;exitDy=0;entryX=0.5;entryY=0;entryDx=0;entryDy=0;" edge="1" parent="1" source="hF3pJDBEkqDIrYdnE4Bi-4" target="Qi-mnrDlcUsoXCxiNHGz-47">
                    <mxGeometry relative="1" as="geometry"/>
                </mxCell>
                <mxCell id="Qi-mnrDlcUsoXCxiNHGz-52" style="edgeStyle=orthogonalEdgeStyle;html=1;exitX=0.5;exitY=0;exitDx=0;exitDy=0;entryX=0;entryY=0.5;entryDx=0;entryDy=0;" edge="1" parent="1" source="hF3pJDBEkqDIrYdnE4Bi-4" target="hF3pJDBEkqDIrYdnE4Bi-3">
                    <mxGeometry relative="1" as="geometry"/>
                </mxCell>
                <mxCell id="hF3pJDBEkqDIrYdnE4Bi-4" value="State" style="rounded=1;whiteSpace=wrap;html=1;" vertex="1" parent="1">
                    <mxGeometry x="220" y="700" width="120" height="60" as="geometry"/>
                </mxCell>
                <mxCell id="hF3pJDBEkqDIrYdnE4Bi-10" style="edgeStyle=orthogonalEdgeStyle;html=1;exitX=0;exitY=0.5;exitDx=0;exitDy=0;entryX=0;entryY=0.5;entryDx=0;entryDy=0;" edge="1" parent="1" target="hF3pJDBEkqDIrYdnE4Bi-9">
                    <mxGeometry relative="1" as="geometry">
                        <mxPoint x="50" y="120" as="sourcePoint"/>
                    </mxGeometry>
                </mxCell>
                <mxCell id="hF3pJDBEkqDIrYdnE4Bi-12" style="edgeStyle=orthogonalEdgeStyle;html=1;exitX=1;exitY=0.5;exitDx=0;exitDy=0;entryX=0.25;entryY=0;entryDx=0;entryDy=0;" edge="1" parent="1" source="hF3pJDBEkqDIrYdnE4Bi-9" target="hF3pJDBEkqDIrYdnE4Bi-11">
                    <mxGeometry relative="1" as="geometry"/>
                </mxCell>
                <mxCell id="hF3pJDBEkqDIrYdnE4Bi-9" value="FingerPrint" style="rounded=1;whiteSpace=wrap;html=1;" vertex="1" parent="1">
                    <mxGeometry x="80" y="90" width="120" height="60" as="geometry"/>
                </mxCell>
                <mxCell id="Qi-mnrDlcUsoXCxiNHGz-5" style="edgeStyle=orthogonalEdgeStyle;html=1;exitX=0.75;exitY=0;exitDx=0;exitDy=0;entryX=0;entryY=0.5;entryDx=0;entryDy=0;" edge="1" parent="1" source="hF3pJDBEkqDIrYdnE4Bi-11" target="Qi-mnrDlcUsoXCxiNHGz-2">
                    <mxGeometry relative="1" as="geometry"/>
                </mxCell>
                <mxCell id="Qi-mnrDlcUsoXCxiNHGz-7" style="edgeStyle=orthogonalEdgeStyle;html=1;exitX=1;exitY=0.5;exitDx=0;exitDy=0;entryX=0.25;entryY=0;entryDx=0;entryDy=0;" edge="1" parent="1" source="hF3pJDBEkqDIrYdnE4Bi-11" target="Qi-mnrDlcUsoXCxiNHGz-6">
                    <mxGeometry relative="1" as="geometry"/>
                </mxCell>
                <mxCell id="Qi-mnrDlcUsoXCxiNHGz-9" style="edgeStyle=orthogonalEdgeStyle;html=1;exitX=0.5;exitY=1;exitDx=0;exitDy=0;entryX=1;entryY=0.5;entryDx=0;entryDy=0;" edge="1" parent="1" source="hF3pJDBEkqDIrYdnE4Bi-11" target="Qi-mnrDlcUsoXCxiNHGz-8">
                    <mxGeometry relative="1" as="geometry"/>
                </mxCell>
                <mxCell id="hF3pJDBEkqDIrYdnE4Bi-11" value="JWT" style="rounded=1;whiteSpace=wrap;html=1;" vertex="1" parent="1">
                    <mxGeometry x="220" y="170" width="120" height="60" as="geometry"/>
                </mxCell>
                <mxCell id="Qi-mnrDlcUsoXCxiNHGz-1" style="edgeStyle=none;html=1;exitX=1;exitY=0.25;exitDx=0;exitDy=0;fontColor=#f0efef;" edge="1" parent="1" source="Qi-mnrDlcUsoXCxiNHGz-2">
                    <mxGeometry relative="1" as="geometry">
                        <mxPoint x="505" y="75" as="targetPoint"/>
                    </mxGeometry>
                </mxCell>
                <mxCell id="Qi-mnrDlcUsoXCxiNHGz-2" value="Query" style="rounded=1;whiteSpace=wrap;html=1;" vertex="1" parent="1">
                    <mxGeometry x="340" y="60" width="120" height="60" as="geometry"/>
                </mxCell>
                <mxCell id="Qi-mnrDlcUsoXCxiNHGz-3" style="edgeStyle=none;html=1;exitX=0;exitY=0;exitDx=0;exitDy=52.5;exitPerimeter=0;fontColor=#f0efef;" edge="1" parent="1" source="Qi-mnrDlcUsoXCxiNHGz-4">
                    <mxGeometry relative="1" as="geometry">
                        <mxPoint x="465" y="103" as="targetPoint"/>
                    </mxGeometry>
                </mxCell>
                <mxCell id="Qi-mnrDlcUsoXCxiNHGz-4" value="DB_Users" style="shape=cylinder3;whiteSpace=wrap;html=1;boundedLbl=1;backgroundOutline=1;size=15;" vertex="1" parent="1">
                    <mxGeometry x="515" y="50" width="80" height="80" as="geometry"/>
                </mxCell>
                <mxCell id="Qi-mnrDlcUsoXCxiNHGz-11" style="edgeStyle=orthogonalEdgeStyle;html=1;exitX=0.25;exitY=1;exitDx=0;exitDy=0;" edge="1" parent="1" source="Qi-mnrDlcUsoXCxiNHGz-6">
                    <mxGeometry relative="1" as="geometry">
                        <mxPoint x="50" y="360" as="targetPoint"/>
                        <Array as="points">
                            <mxPoint x="395" y="360"/>
                            <mxPoint x="50" y="360"/>
                        </Array>
                    </mxGeometry>
                </mxCell>
                <mxCell id="Qi-mnrDlcUsoXCxiNHGz-15" style="edgeStyle=orthogonalEdgeStyle;html=1;exitX=1;exitY=0.5;exitDx=0;exitDy=0;entryX=0;entryY=0.5;entryDx=0;entryDy=0;" edge="1" parent="1" source="Qi-mnrDlcUsoXCxiNHGz-6" target="Qi-mnrDlcUsoXCxiNHGz-14">
                    <mxGeometry relative="1" as="geometry"/>
                </mxCell>
                <mxCell id="Qi-mnrDlcUsoXCxiNHGz-6" value="Payload?" style="rounded=1;whiteSpace=wrap;html=1;" vertex="1" parent="1">
                    <mxGeometry x="365" y="240" width="120" height="60" as="geometry"/>
                </mxCell>
                <mxCell id="Qi-mnrDlcUsoXCxiNHGz-10" style="edgeStyle=orthogonalEdgeStyle;html=1;exitX=0;exitY=0.5;exitDx=0;exitDy=0;" edge="1" parent="1" source="Qi-mnrDlcUsoXCxiNHGz-8">
                    <mxGeometry relative="1" as="geometry">
                        <mxPoint x="50" y="310" as="targetPoint"/>
                    </mxGeometry>
                </mxCell>
                <mxCell id="Qi-mnrDlcUsoXCxiNHGz-8" value="Update JWT" style="rounded=1;whiteSpace=wrap;html=1;" vertex="1" parent="1">
                    <mxGeometry x="140" y="280" width="120" height="60" as="geometry"/>
                </mxCell>
                <mxCell id="Qi-mnrDlcUsoXCxiNHGz-17" style="edgeStyle=orthogonalEdgeStyle;html=1;exitX=0.25;exitY=1;exitDx=0;exitDy=0;entryX=1;entryY=0.5;entryDx=0;entryDy=0;" edge="1" parent="1" source="Qi-mnrDlcUsoXCxiNHGz-13" target="Qi-mnrDlcUsoXCxiNHGz-14">
                    <mxGeometry relative="1" as="geometry"/>
                </mxCell>
                <mxCell id="Qi-mnrDlcUsoXCxiNHGz-13" value="SIgn Generator" style="shape=parallelogram;perimeter=parallelogramPerimeter;whiteSpace=wrap;html=1;fixedSize=1;" vertex="1" parent="1">
                    <mxGeometry x="650" y="80" width="120" height="60" as="geometry"/>
                </mxCell>
                <mxCell id="Qi-mnrDlcUsoXCxiNHGz-16" style="edgeStyle=orthogonalEdgeStyle;html=1;exitX=0.75;exitY=0;exitDx=0;exitDy=0;entryX=0.433;entryY=-0.017;entryDx=0;entryDy=0;entryPerimeter=0;" edge="1" parent="1" source="Qi-mnrDlcUsoXCxiNHGz-14" target="Qi-mnrDlcUsoXCxiNHGz-13">
                    <mxGeometry relative="1" as="geometry"/>
                </mxCell>
                <mxCell id="Qi-mnrDlcUsoXCxiNHGz-31" style="edgeStyle=orthogonalEdgeStyle;html=1;exitX=0.25;exitY=1;exitDx=0;exitDy=0;entryX=0.5;entryY=0;entryDx=0;entryDy=0;" edge="1" parent="1" source="Qi-mnrDlcUsoXCxiNHGz-14" target="Qi-mnrDlcUsoXCxiNHGz-30">
                    <mxGeometry relative="1" as="geometry"/>
                </mxCell>
                <mxCell id="Qi-mnrDlcUsoXCxiNHGz-14" value="State" style="rounded=1;whiteSpace=wrap;html=1;" vertex="1" parent="1">
                    <mxGeometry x="515" y="170" width="120" height="60" as="geometry"/>
                </mxCell>
                <mxCell id="Qi-mnrDlcUsoXCxiNHGz-19" style="edgeStyle=none;html=1;exitX=1;exitY=0.25;exitDx=0;exitDy=0;fontColor=#f0efef;" edge="1" source="Qi-mnrDlcUsoXCxiNHGz-20" parent="1">
                    <mxGeometry relative="1" as="geometry">
                        <mxPoint x="747.5" y="325" as="targetPoint"/>
                    </mxGeometry>
                </mxCell>
                <mxCell id="Qi-mnrDlcUsoXCxiNHGz-20" value="Command" style="rounded=1;whiteSpace=wrap;html=1;" vertex="1" parent="1">
                    <mxGeometry x="582.5" y="310" width="120" height="60" as="geometry"/>
                </mxCell>
                <mxCell id="Qi-mnrDlcUsoXCxiNHGz-21" style="edgeStyle=none;html=1;exitX=0;exitY=0;exitDx=0;exitDy=52.5;exitPerimeter=0;fontColor=#f0efef;" edge="1" source="Qi-mnrDlcUsoXCxiNHGz-22" parent="1">
                    <mxGeometry relative="1" as="geometry">
                        <mxPoint x="707.5" y="353" as="targetPoint"/>
                    </mxGeometry>
                </mxCell>
                <mxCell id="Qi-mnrDlcUsoXCxiNHGz-22" value="DB_Users" style="shape=cylinder3;whiteSpace=wrap;html=1;boundedLbl=1;backgroundOutline=1;size=15;" vertex="1" parent="1">
                    <mxGeometry x="757.5" y="300" width="80" height="80" as="geometry"/>
                </mxCell>
                <mxCell id="Qi-mnrDlcUsoXCxiNHGz-23" style="edgeStyle=none;html=1;exitX=1;exitY=0.25;exitDx=0;exitDy=0;fontColor=#f0efef;" edge="1" source="Qi-mnrDlcUsoXCxiNHGz-24" parent="1">
                    <mxGeometry relative="1" as="geometry">
                        <mxPoint x="755" y="435" as="targetPoint"/>
                    </mxGeometry>
                </mxCell>
                <mxCell id="Qi-mnrDlcUsoXCxiNHGz-24" value="Command" style="rounded=1;whiteSpace=wrap;html=1;" vertex="1" parent="1">
                    <mxGeometry x="582.5" y="420" width="120" height="60" as="geometry"/>
                </mxCell>
                <mxCell id="Qi-mnrDlcUsoXCxiNHGz-25" style="edgeStyle=none;html=1;exitX=0;exitY=0;exitDx=0;exitDy=52.5;exitPerimeter=0;fontColor=#f0efef;" edge="1" source="Qi-mnrDlcUsoXCxiNHGz-26" parent="1">
                    <mxGeometry relative="1" as="geometry">
                        <mxPoint x="715" y="463" as="targetPoint"/>
                        <Array as="points"/>
                    </mxGeometry>
                </mxCell>
                <mxCell id="Qi-mnrDlcUsoXCxiNHGz-26" value="DB_Secrets" style="shape=cylinder3;whiteSpace=wrap;html=1;boundedLbl=1;backgroundOutline=1;size=15;" vertex="1" parent="1">
                    <mxGeometry x="757.5" y="410" width="80" height="80" as="geometry"/>
                </mxCell>
                <mxCell id="Qi-mnrDlcUsoXCxiNHGz-34" style="html=1;exitX=1;exitY=0.25;exitDx=0;exitDy=0;" edge="1" parent="1" source="Qi-mnrDlcUsoXCxiNHGz-30">
                    <mxGeometry relative="1" as="geometry">
                        <mxPoint x="580" y="340" as="targetPoint"/>
                        <Array as="points">
                            <mxPoint x="500" y="425"/>
                            <mxPoint x="500" y="410"/>
                            <mxPoint x="550" y="410"/>
                            <mxPoint x="550" y="340"/>
                        </Array>
                    </mxGeometry>
                </mxCell>
                <mxCell id="Qi-mnrDlcUsoXCxiNHGz-39" style="edgeStyle=none;html=1;exitX=0;exitY=0.5;exitDx=0;exitDy=0;entryX=1;entryY=0.5;entryDx=0;entryDy=0;" edge="1" parent="1" source="Qi-mnrDlcUsoXCxiNHGz-30" target="Qi-mnrDlcUsoXCxiNHGz-37">
                    <mxGeometry relative="1" as="geometry"/>
                </mxCell>
                <mxCell id="Qi-mnrDlcUsoXCxiNHGz-42" style="edgeStyle=orthogonalEdgeStyle;html=1;exitX=0;exitY=0.75;exitDx=0;exitDy=0;" edge="1" parent="1" source="Qi-mnrDlcUsoXCxiNHGz-30">
                    <mxGeometry relative="1" as="geometry">
                        <mxPoint x="50" y="500" as="targetPoint"/>
                        <Array as="points">
                            <mxPoint x="320" y="455"/>
                            <mxPoint x="320" y="500"/>
                        </Array>
                    </mxGeometry>
                </mxCell>
                <mxCell id="Qi-mnrDlcUsoXCxiNHGz-30" value="ResultOperations" style="rounded=1;whiteSpace=wrap;html=1;" vertex="1" parent="1">
                    <mxGeometry x="350" y="410" width="120" height="60" as="geometry"/>
                </mxCell>
                <mxCell id="Qi-mnrDlcUsoXCxiNHGz-35" value="" style="endArrow=classic;html=1;" edge="1" parent="1">
                    <mxGeometry width="50" height="50" relative="1" as="geometry">
                        <mxPoint x="472.5" y="449.5" as="sourcePoint"/>
                        <mxPoint x="582.5" y="449.5" as="targetPoint"/>
                    </mxGeometry>
                </mxCell>
                <mxCell id="Qi-mnrDlcUsoXCxiNHGz-40" style="edgeStyle=none;html=1;exitX=0;exitY=0.5;exitDx=0;exitDy=0;" edge="1" parent="1" source="Qi-mnrDlcUsoXCxiNHGz-37">
                    <mxGeometry relative="1" as="geometry">
                        <mxPoint x="50" y="440" as="targetPoint"/>
                    </mxGeometry>
                </mxCell>
                <mxCell id="Qi-mnrDlcUsoXCxiNHGz-37" value="Reboot Session - logout force" style="rounded=1;whiteSpace=wrap;html=1;" vertex="1" parent="1">
                    <mxGeometry x="150" y="410" width="120" height="60" as="geometry"/>
                </mxCell>
                <mxCell id="Qi-mnrDlcUsoXCxiNHGz-53" style="edgeStyle=orthogonalEdgeStyle;html=1;exitX=0.25;exitY=1;exitDx=0;exitDy=0;" edge="1" parent="1" source="Qi-mnrDlcUsoXCxiNHGz-43">
                    <mxGeometry relative="1" as="geometry">
                        <mxPoint x="50" y="920" as="targetPoint"/>
                        <Array as="points">
                            <mxPoint x="515" y="760"/>
                            <mxPoint x="460" y="760"/>
                            <mxPoint x="460" y="920"/>
                        </Array>
                    </mxGeometry>
                </mxCell>
                <mxCell id="Qi-mnrDlcUsoXCxiNHGz-43" value="Ask for fingerprint" style="rounded=1;whiteSpace=wrap;html=1;" vertex="1" parent="1">
                    <mxGeometry x="485" y="670" width="120" height="60" as="geometry"/>
                </mxCell>
                <mxCell id="Qi-mnrDlcUsoXCxiNHGz-46" style="edgeStyle=orthogonalEdgeStyle;html=1;exitX=0.5;exitY=1;exitDx=0;exitDy=0;entryX=1;entryY=0.5;entryDx=0;entryDy=0;" edge="1" source="Qi-mnrDlcUsoXCxiNHGz-47" target="Qi-mnrDlcUsoXCxiNHGz-49" parent="1">
                    <mxGeometry relative="1" as="geometry"/>
                </mxCell>
                <mxCell id="Qi-mnrDlcUsoXCxiNHGz-55" style="edgeStyle=orthogonalEdgeStyle;html=1;exitX=1;exitY=0.5;exitDx=0;exitDy=0;" edge="1" parent="1" source="Qi-mnrDlcUsoXCxiNHGz-47">
                    <mxGeometry relative="1" as="geometry">
                        <mxPoint x="510" y="810" as="targetPoint"/>
                    </mxGeometry>
                </mxCell>
                <mxCell id="Qi-mnrDlcUsoXCxiNHGz-47" value="JWT" style="rounded=1;whiteSpace=wrap;html=1;" vertex="1" parent="1">
                    <mxGeometry x="320" y="780" width="120" height="60" as="geometry"/>
                </mxCell>
                <mxCell id="Qi-mnrDlcUsoXCxiNHGz-48" style="edgeStyle=orthogonalEdgeStyle;html=1;exitX=0;exitY=0.5;exitDx=0;exitDy=0;" edge="1" source="Qi-mnrDlcUsoXCxiNHGz-49" parent="1">
                    <mxGeometry relative="1" as="geometry">
                        <mxPoint x="50" y="870" as="targetPoint"/>
                    </mxGeometry>
                </mxCell>
                <mxCell id="Qi-mnrDlcUsoXCxiNHGz-49" value="Update JWT" style="rounded=1;whiteSpace=wrap;html=1;" vertex="1" parent="1">
                    <mxGeometry x="170" y="840" width="120" height="60" as="geometry"/>
                </mxCell>
                <mxCell id="Qi-mnrDlcUsoXCxiNHGz-57" style="edgeStyle=orthogonalEdgeStyle;html=1;exitX=0.25;exitY=1;exitDx=0;exitDy=0;entryX=1;entryY=0.5;entryDx=0;entryDy=0;" edge="1" parent="1" source="Qi-mnrDlcUsoXCxiNHGz-54" target="Qi-mnrDlcUsoXCxiNHGz-56">
                    <mxGeometry relative="1" as="geometry"/>
                </mxCell>
                <mxCell id="pwyoFCrhFu9Jc4e_MCTR-1" style="edgeStyle=orthogonalEdgeStyle;html=1;exitX=1;exitY=0.5;exitDx=0;exitDy=0;" edge="1" parent="1" source="Qi-mnrDlcUsoXCxiNHGz-54">
                    <mxGeometry relative="1" as="geometry">
                        <mxPoint x="100" y="1360" as="targetPoint"/>
                        <Array as="points">
                            <mxPoint x="660" y="810"/>
                            <mxPoint x="660" y="890"/>
                            <mxPoint x="590" y="890"/>
                            <mxPoint x="590" y="1120"/>
                            <mxPoint x="100" y="1120"/>
                        </Array>
                    </mxGeometry>
                </mxCell>
                <mxCell id="Qi-mnrDlcUsoXCxiNHGz-54" value="Compare session&amp;nbsp; -&amp;nbsp; jwt&amp;nbsp;" style="rounded=0;whiteSpace=wrap;html=1;" vertex="1" parent="1">
                    <mxGeometry x="515" y="780" width="120" height="60" as="geometry"/>
                </mxCell>
                <mxCell id="Qi-mnrDlcUsoXCxiNHGz-58" style="edgeStyle=orthogonalEdgeStyle;html=1;exitX=0;exitY=0.5;exitDx=0;exitDy=0;" edge="1" parent="1" source="Qi-mnrDlcUsoXCxiNHGz-56">
                    <mxGeometry relative="1" as="geometry">
                        <mxPoint x="50" y="980" as="targetPoint"/>
                    </mxGeometry>
                </mxCell>
                <mxCell id="Qi-mnrDlcUsoXCxiNHGz-61" style="edgeStyle=orthogonalEdgeStyle;html=1;exitX=0.5;exitY=1;exitDx=0;exitDy=0;" edge="1" parent="1" source="Qi-mnrDlcUsoXCxiNHGz-56" target="Qi-mnrDlcUsoXCxiNHGz-59">
                    <mxGeometry relative="1" as="geometry"/>
                </mxCell>
                <mxCell id="Qi-mnrDlcUsoXCxiNHGz-56" value="Reboot Session - logout force" style="rounded=1;whiteSpace=wrap;html=1;" vertex="1" parent="1">
                    <mxGeometry x="270" y="950" width="120" height="60" as="geometry"/>
                </mxCell>
                <mxCell id="Qi-mnrDlcUsoXCxiNHGz-59" value="Email alert" style="shape=parallelogram;perimeter=parallelogramPerimeter;whiteSpace=wrap;html=1;fixedSize=1;" vertex="1" parent="1">
                    <mxGeometry x="270" y="1040" width="120" height="60" as="geometry"/>
                </mxCell>
                <mxCell id="neVp1AwAwBu81O-35pXH-4" style="edgeStyle=orthogonalEdgeStyle;html=1;exitX=1;exitY=0.5;exitDx=0;exitDy=0;" edge="1" parent="1" source="Qi-mnrDlcUsoXCxiNHGz-63">
                    <mxGeometry relative="1" as="geometry">
                        <mxPoint x="470" y="1210" as="targetPoint"/>
                    </mxGeometry>
                </mxCell>
                <mxCell id="Qi-mnrDlcUsoXCxiNHGz-63" value="Encrypt secret data with&amp;nbsp;&lt;br&gt;fingerprint" style="shape=parallelogram;perimeter=parallelogramPerimeter;whiteSpace=wrap;html=1;fixedSize=1;" vertex="1" parent="1">
                    <mxGeometry x="286.25" y="1180" width="155" height="60" as="geometry"/>
                </mxCell>
                <mxCell id="pwyoFCrhFu9Jc4e_MCTR-4" style="edgeStyle=orthogonalEdgeStyle;html=1;exitX=1;exitY=0.25;exitDx=0;exitDy=0;entryX=0;entryY=0.25;entryDx=0;entryDy=0;" edge="1" parent="1" source="Qi-mnrDlcUsoXCxiNHGz-67" target="Qi-mnrDlcUsoXCxiNHGz-70">
                    <mxGeometry relative="1" as="geometry"/>
                </mxCell>
                <mxCell id="pwyoFCrhFu9Jc4e_MCTR-9" style="edgeStyle=orthogonalEdgeStyle;html=1;exitX=0.25;exitY=1;exitDx=0;exitDy=0;" edge="1" parent="1" source="Qi-mnrDlcUsoXCxiNHGz-67">
                    <mxGeometry relative="1" as="geometry">
                        <mxPoint x="100" y="1270" as="targetPoint"/>
                        <Array as="points">
                            <mxPoint x="505" y="1270"/>
                            <mxPoint x="100" y="1270"/>
                        </Array>
                    </mxGeometry>
                </mxCell>
                <mxCell id="Qi-mnrDlcUsoXCxiNHGz-67" value="State" style="rounded=1;whiteSpace=wrap;html=1;" vertex="1" parent="1">
                    <mxGeometry x="475" y="1190" width="120" height="60" as="geometry"/>
                </mxCell>
                <mxCell id="pwyoFCrhFu9Jc4e_MCTR-5" style="edgeStyle=orthogonalEdgeStyle;html=1;exitX=1;exitY=0.25;exitDx=0;exitDy=0;entryX=0;entryY=0;entryDx=0;entryDy=27.5;entryPerimeter=0;" edge="1" parent="1" source="Qi-mnrDlcUsoXCxiNHGz-70" target="Qi-mnrDlcUsoXCxiNHGz-71">
                    <mxGeometry relative="1" as="geometry"/>
                </mxCell>
                <mxCell id="pwyoFCrhFu9Jc4e_MCTR-8" style="edgeStyle=orthogonalEdgeStyle;html=1;exitX=0;exitY=0.75;exitDx=0;exitDy=0;entryX=1;entryY=0.75;entryDx=0;entryDy=0;" edge="1" parent="1" source="Qi-mnrDlcUsoXCxiNHGz-70" target="Qi-mnrDlcUsoXCxiNHGz-67">
                    <mxGeometry relative="1" as="geometry"/>
                </mxCell>
                <mxCell id="Qi-mnrDlcUsoXCxiNHGz-70" value="Command" style="rounded=1;whiteSpace=wrap;html=1;" vertex="1" parent="1">
                    <mxGeometry x="650" y="1190" width="120" height="60" as="geometry"/>
                </mxCell>
                <mxCell id="pwyoFCrhFu9Jc4e_MCTR-7" style="edgeStyle=orthogonalEdgeStyle;html=1;exitX=0;exitY=0;exitDx=0;exitDy=52.5;exitPerimeter=0;entryX=1;entryY=0.75;entryDx=0;entryDy=0;" edge="1" parent="1" source="Qi-mnrDlcUsoXCxiNHGz-71" target="Qi-mnrDlcUsoXCxiNHGz-70">
                    <mxGeometry relative="1" as="geometry"/>
                </mxCell>
                <mxCell id="Qi-mnrDlcUsoXCxiNHGz-71" value="Db_secrets" style="shape=cylinder3;whiteSpace=wrap;html=1;boundedLbl=1;backgroundOutline=1;size=15;" vertex="1" parent="1">
                    <mxGeometry x="790" y="1180" width="60" height="80" as="geometry"/>
                </mxCell>
                <mxCell id="neVp1AwAwBu81O-35pXH-2" style="edgeStyle=orthogonalEdgeStyle;html=1;exitX=0;exitY=0.5;exitDx=0;exitDy=0;entryX=0;entryY=0.5;entryDx=0;entryDy=0;" edge="1" parent="1" target="neVp1AwAwBu81O-35pXH-1">
                    <mxGeometry relative="1" as="geometry">
                        <mxPoint x="100" y="1210" as="sourcePoint"/>
                    </mxGeometry>
                </mxCell>
                <mxCell id="neVp1AwAwBu81O-35pXH-3" style="edgeStyle=orthogonalEdgeStyle;html=1;exitX=1;exitY=0.5;exitDx=0;exitDy=0;entryX=0;entryY=0.5;entryDx=0;entryDy=0;" edge="1" parent="1" source="neVp1AwAwBu81O-35pXH-1" target="Qi-mnrDlcUsoXCxiNHGz-63">
                    <mxGeometry relative="1" as="geometry"/>
                </mxCell>
                <mxCell id="neVp1AwAwBu81O-35pXH-1" value="Add secret data" style="rounded=1;whiteSpace=wrap;html=1;" vertex="1" parent="1">
                    <mxGeometry x="140" y="1180" width="120" height="60" as="geometry"/>
                </mxCell>
            </root>
        </mxGraphModel>
    </diagram>
    <diagram id="Bp2aEq0QPkn2a-USRyUo" name="Page-6">
        <mxGraphModel dx="1386" dy="773" grid="1" gridSize="10" guides="1" tooltips="1" connect="1" arrows="1" fold="1" page="1" pageScale="1" pageWidth="850" pageHeight="1400" math="0" shadow="0">
            <root>
                <mxCell id="0"/>
                <mxCell id="1" parent="0"/>
                <mxCell id="uCJ0oGWMjJQ2CM2aLbhF-1" value="" style="shape=flexArrow;endArrow=classic;startArrow=classic;html=1;" edge="1" parent="1">
                    <mxGeometry width="100" height="100" relative="1" as="geometry">
                        <mxPoint x="30" y="1400" as="sourcePoint"/>
                        <mxPoint x="40" y="40" as="targetPoint"/>
                    </mxGeometry>
                </mxCell>
                <mxCell id="WXih1g1G9VanpY8qPOmo-2" style="edgeStyle=orthogonalEdgeStyle;html=1;exitX=0;exitY=0.5;exitDx=0;exitDy=0;entryX=0;entryY=0.5;entryDx=0;entryDy=0;" edge="1" parent="1" target="WXih1g1G9VanpY8qPOmo-1">
                    <mxGeometry relative="1" as="geometry">
                        <mxPoint x="50" y="120" as="sourcePoint"/>
                    </mxGeometry>
                </mxCell>
                <mxCell id="5fyRv31P7dBamOX-e07o-2" style="edgeStyle=orthogonalEdgeStyle;html=1;exitX=0.5;exitY=1;exitDx=0;exitDy=0;entryX=0.5;entryY=0;entryDx=0;entryDy=0;" edge="1" parent="1" source="WXih1g1G9VanpY8qPOmo-1" target="5fyRv31P7dBamOX-e07o-1">
                    <mxGeometry relative="1" as="geometry"/>
                </mxCell>
                <mxCell id="WXih1g1G9VanpY8qPOmo-1" value="Security middleware" style="rounded=1;whiteSpace=wrap;html=1;" vertex="1" parent="1">
                    <mxGeometry x="80" y="90" width="120" height="60" as="geometry"/>
                </mxCell>
                <mxCell id="5fyRv31P7dBamOX-e07o-4" style="edgeStyle=orthogonalEdgeStyle;html=1;exitX=1;exitY=0.5;exitDx=0;exitDy=0;entryX=0.5;entryY=0;entryDx=0;entryDy=0;" edge="1" parent="1" source="5fyRv31P7dBamOX-e07o-1" target="5fyRv31P7dBamOX-e07o-3">
                    <mxGeometry relative="1" as="geometry"/>
                </mxCell>
                <mxCell id="5fyRv31P7dBamOX-e07o-1" value="Methods" style="rounded=1;whiteSpace=wrap;html=1;" vertex="1" parent="1">
                    <mxGeometry x="230" y="110" width="120" height="60" as="geometry"/>
                </mxCell>
                <mxCell id="VXA_zej_UwyuQb5uTH67-2" style="edgeStyle=orthogonalEdgeStyle;html=1;exitX=0.5;exitY=1;exitDx=0;exitDy=0;entryX=0.5;entryY=0;entryDx=0;entryDy=0;" edge="1" parent="1" source="5fyRv31P7dBamOX-e07o-3" target="VXA_zej_UwyuQb5uTH67-1">
                    <mxGeometry relative="1" as="geometry"/>
                </mxCell>
                <mxCell id="VXA_zej_UwyuQb5uTH67-3" style="edgeStyle=orthogonalEdgeStyle;html=1;exitX=0;exitY=0.5;exitDx=0;exitDy=0;" edge="1" parent="1" source="5fyRv31P7dBamOX-e07o-3">
                    <mxGeometry relative="1" as="geometry">
                        <mxPoint x="40" y="210" as="targetPoint"/>
                    </mxGeometry>
                </mxCell>
                <mxCell id="5fyRv31P7dBamOX-e07o-3" value="Security verify password" style="rounded=1;whiteSpace=wrap;html=1;" vertex="1" parent="1">
                    <mxGeometry x="300" y="180" width="120" height="60" as="geometry"/>
                </mxCell>
                <mxCell id="VXA_zej_UwyuQb5uTH67-1" value="Email alert" style="shape=parallelogram;perimeter=parallelogramPerimeter;whiteSpace=wrap;html=1;fixedSize=1;" vertex="1" parent="1">
                    <mxGeometry x="300" y="270" width="120" height="60" as="geometry"/>
                </mxCell>
                <mxCell id="VXA_zej_UwyuQb5uTH67-8" style="edgeStyle=orthogonalEdgeStyle;html=1;exitX=1;exitY=0.25;exitDx=0;exitDy=0;" edge="1" parent="1" source="VXA_zej_UwyuQb5uTH67-4">
                    <mxGeometry relative="1" as="geometry">
                        <mxPoint x="490" y="435" as="targetPoint"/>
                    </mxGeometry>
                </mxCell>
                <mxCell id="VXA_zej_UwyuQb5uTH67-12" style="edgeStyle=orthogonalEdgeStyle;html=1;exitX=0.5;exitY=1;exitDx=0;exitDy=0;" edge="1" parent="1" source="VXA_zej_UwyuQb5uTH67-4">
                    <mxGeometry relative="1" as="geometry">
                        <mxPoint x="390" y="530" as="targetPoint"/>
                    </mxGeometry>
                </mxCell>
                <mxCell id="VXA_zej_UwyuQb5uTH67-4" value="Command" style="rounded=1;whiteSpace=wrap;html=1;" vertex="1" parent="1">
                    <mxGeometry x="330" y="420" width="120" height="60" as="geometry"/>
                </mxCell>
                <mxCell id="VXA_zej_UwyuQb5uTH67-9" style="edgeStyle=orthogonalEdgeStyle;html=1;exitX=0;exitY=0;exitDx=0;exitDy=52.5;exitPerimeter=0;" edge="1" parent="1" source="VXA_zej_UwyuQb5uTH67-7">
                    <mxGeometry relative="1" as="geometry">
                        <mxPoint x="460" y="463" as="targetPoint"/>
                    </mxGeometry>
                </mxCell>
                <mxCell id="VXA_zej_UwyuQb5uTH67-7" value="DB_secrets" style="shape=cylinder3;whiteSpace=wrap;html=1;boundedLbl=1;backgroundOutline=1;size=15;" vertex="1" parent="1">
                    <mxGeometry x="500" y="410" width="60" height="80" as="geometry"/>
                </mxCell>
                <mxCell id="VXA_zej_UwyuQb5uTH67-19" style="edgeStyle=orthogonalEdgeStyle;html=1;exitX=0;exitY=0.5;exitDx=0;exitDy=0;" edge="1" parent="1" source="VXA_zej_UwyuQb5uTH67-11">
                    <mxGeometry relative="1" as="geometry">
                        <mxPoint x="40" y="570" as="targetPoint"/>
                    </mxGeometry>
                </mxCell>
                <mxCell id="VXA_zej_UwyuQb5uTH67-11" value="State" style="rounded=1;whiteSpace=wrap;html=1;" vertex="1" parent="1">
                    <mxGeometry x="340" y="540" width="120" height="60" as="geometry"/>
                </mxCell>
                <mxCell id="VXA_zej_UwyuQb5uTH67-29" style="edgeStyle=orthogonalEdgeStyle;html=1;exitX=1;exitY=0.5;exitDx=0;exitDy=0;entryX=0;entryY=0.25;entryDx=0;entryDy=0;" edge="1" parent="1" source="VXA_zej_UwyuQb5uTH67-14" target="VXA_zej_UwyuQb5uTH67-24">
                    <mxGeometry relative="1" as="geometry"/>
                </mxCell>
                <mxCell id="VXA_zej_UwyuQb5uTH67-33" style="edgeStyle=orthogonalEdgeStyle;html=1;exitX=0;exitY=0.5;exitDx=0;exitDy=0;entryX=1;entryY=0.5;entryDx=0;entryDy=0;" edge="1" parent="1" source="VXA_zej_UwyuQb5uTH67-14" target="5fyRv31P7dBamOX-e07o-1">
                    <mxGeometry relative="1" as="geometry">
                        <mxPoint x="450" y="210" as="targetPoint"/>
                        <Array as="points">
                            <mxPoint x="90" y="720"/>
                            <mxPoint x="90" y="370"/>
                            <mxPoint x="450" y="370"/>
                            <mxPoint x="450" y="140"/>
                        </Array>
                    </mxGeometry>
                </mxCell>
                <mxCell id="VXA_zej_UwyuQb5uTH67-14" value="Show" style="rounded=1;whiteSpace=wrap;html=1;" vertex="1" parent="1">
                    <mxGeometry x="150" y="690" width="120" height="60" as="geometry"/>
                </mxCell>
                <mxCell id="VXA_zej_UwyuQb5uTH67-18" style="edgeStyle=orthogonalEdgeStyle;html=1;exitX=1;exitY=0.75;exitDx=0;exitDy=0;entryX=0;entryY=0.25;entryDx=0;entryDy=0;" edge="1" parent="1" source="VXA_zej_UwyuQb5uTH67-15" target="VXA_zej_UwyuQb5uTH67-4">
                    <mxGeometry relative="1" as="geometry"/>
                </mxCell>
                <mxCell id="VXA_zej_UwyuQb5uTH67-15" value="Update / delete" style="whiteSpace=wrap;html=1;" vertex="1" parent="1">
                    <mxGeometry x="150" y="390" width="120" height="60" as="geometry"/>
                </mxCell>
                <mxCell id="VXA_zej_UwyuQb5uTH67-22" style="edgeStyle=orthogonalEdgeStyle;html=1;exitX=1;exitY=0.25;exitDx=0;exitDy=0;" edge="1" source="VXA_zej_UwyuQb5uTH67-24" parent="1">
                    <mxGeometry relative="1" as="geometry">
                        <mxPoint x="490" y="715" as="targetPoint"/>
                    </mxGeometry>
                </mxCell>
                <mxCell id="VXA_zej_UwyuQb5uTH67-23" style="edgeStyle=orthogonalEdgeStyle;html=1;exitX=0.5;exitY=1;exitDx=0;exitDy=0;" edge="1" source="VXA_zej_UwyuQb5uTH67-24" parent="1">
                    <mxGeometry relative="1" as="geometry">
                        <mxPoint x="390" y="810" as="targetPoint"/>
                    </mxGeometry>
                </mxCell>
                <mxCell id="VXA_zej_UwyuQb5uTH67-24" value="Query" style="rounded=1;whiteSpace=wrap;html=1;" vertex="1" parent="1">
                    <mxGeometry x="330" y="700" width="120" height="60" as="geometry"/>
                </mxCell>
                <mxCell id="VXA_zej_UwyuQb5uTH67-25" style="edgeStyle=orthogonalEdgeStyle;html=1;exitX=0;exitY=0;exitDx=0;exitDy=52.5;exitPerimeter=0;" edge="1" source="VXA_zej_UwyuQb5uTH67-26" parent="1">
                    <mxGeometry relative="1" as="geometry">
                        <mxPoint x="460" y="743" as="targetPoint"/>
                    </mxGeometry>
                </mxCell>
                <mxCell id="VXA_zej_UwyuQb5uTH67-26" value="DB_secrets" style="shape=cylinder3;whiteSpace=wrap;html=1;boundedLbl=1;backgroundOutline=1;size=15;" vertex="1" parent="1">
                    <mxGeometry x="500" y="690" width="60" height="80" as="geometry"/>
                </mxCell>
                <mxCell id="VXA_zej_UwyuQb5uTH67-30" style="edgeStyle=orthogonalEdgeStyle;html=1;exitX=0;exitY=0.5;exitDx=0;exitDy=0;" edge="1" parent="1" source="VXA_zej_UwyuQb5uTH67-27">
                    <mxGeometry relative="1" as="geometry">
                        <mxPoint x="50" y="850" as="targetPoint"/>
                    </mxGeometry>
                </mxCell>
                <mxCell id="VXA_zej_UwyuQb5uTH67-27" value="State" style="rounded=1;whiteSpace=wrap;html=1;" vertex="1" parent="1">
                    <mxGeometry x="340" y="820" width="120" height="60" as="geometry"/>
                </mxCell>
                <mxCell id="VXA_zej_UwyuQb5uTH67-32" style="edgeStyle=orthogonalEdgeStyle;html=1;entryX=0;entryY=0.5;entryDx=0;entryDy=0;exitX=0;exitY=0.5;exitDx=0;exitDy=0;" edge="1" parent="1" target="VXA_zej_UwyuQb5uTH67-31">
                    <mxGeometry relative="1" as="geometry">
                        <mxPoint x="430" y="210" as="sourcePoint"/>
                        <Array as="points">
                            <mxPoint x="530" y="250"/>
                            <mxPoint x="100" y="250"/>
                            <mxPoint x="100" y="970"/>
                        </Array>
                    </mxGeometry>
                </mxCell>
                <mxCell id="VXA_zej_UwyuQb5uTH67-35" style="edgeStyle=orthogonalEdgeStyle;html=1;exitX=1;exitY=0.5;exitDx=0;exitDy=0;entryX=0.5;entryY=0;entryDx=0;entryDy=0;" edge="1" parent="1" source="VXA_zej_UwyuQb5uTH67-31" target="VXA_zej_UwyuQb5uTH67-34">
                    <mxGeometry relative="1" as="geometry"/>
                </mxCell>
                <mxCell id="VXA_zej_UwyuQb5uTH67-31" value="Decipher&amp;nbsp;" style="rounded=0;whiteSpace=wrap;html=1;" vertex="1" parent="1">
                    <mxGeometry x="160" y="940" width="100" height="60" as="geometry"/>
                </mxCell>
                <mxCell id="VXA_zej_UwyuQb5uTH67-36" style="edgeStyle=orthogonalEdgeStyle;html=1;exitX=0;exitY=0.5;exitDx=0;exitDy=0;" edge="1" parent="1" source="VXA_zej_UwyuQb5uTH67-34">
                    <mxGeometry relative="1" as="geometry">
                        <mxPoint x="40" y="1050" as="targetPoint"/>
                    </mxGeometry>
                </mxCell>
                <mxCell id="VXA_zej_UwyuQb5uTH67-39" style="edgeStyle=orthogonalEdgeStyle;html=1;" edge="1" parent="1" source="VXA_zej_UwyuQb5uTH67-34">
                    <mxGeometry relative="1" as="geometry">
                        <mxPoint x="360" y="1110" as="targetPoint"/>
                    </mxGeometry>
                </mxCell>
                <mxCell id="VXA_zej_UwyuQb5uTH67-41" style="edgeStyle=orthogonalEdgeStyle;html=1;exitX=1;exitY=0.5;exitDx=0;exitDy=0;entryX=0;entryY=0.5;entryDx=0;entryDy=0;" edge="1" parent="1" source="VXA_zej_UwyuQb5uTH67-34" target="VXA_zej_UwyuQb5uTH67-40">
                    <mxGeometry relative="1" as="geometry"/>
                </mxCell>
                <mxCell id="VXA_zej_UwyuQb5uTH67-34" value="Secutiry verify password" style="rounded=1;whiteSpace=wrap;html=1;" vertex="1" parent="1">
                    <mxGeometry x="305" y="1020" width="120" height="60" as="geometry"/>
                </mxCell>
                <mxCell id="VXA_zej_UwyuQb5uTH67-38" value="Email alert" style="shape=parallelogram;perimeter=parallelogramPerimeter;whiteSpace=wrap;html=1;fixedSize=1;" vertex="1" parent="1">
                    <mxGeometry x="305" y="1120" width="120" height="60" as="geometry"/>
                </mxCell>
                <mxCell id="VXA_zej_UwyuQb5uTH67-42" style="edgeStyle=orthogonalEdgeStyle;html=1;exitX=1;exitY=0.5;exitDx=0;exitDy=0;" edge="1" parent="1" source="VXA_zej_UwyuQb5uTH67-40">
                    <mxGeometry relative="1" as="geometry">
                        <mxPoint x="40" y="1200" as="targetPoint"/>
                        <Array as="points">
                            <mxPoint x="600" y="1050"/>
                            <mxPoint x="600" y="1200"/>
                        </Array>
                    </mxGeometry>
                </mxCell>
                <mxCell id="VXA_zej_UwyuQb5uTH67-40" value="DoDecipher" style="rounded=1;whiteSpace=wrap;html=1;" vertex="1" parent="1">
                    <mxGeometry x="470" y="1020" width="120" height="60" as="geometry"/>
                </mxCell>
            </root>
        </mxGraphModel>
    </diagram>
    <diagram id="bCrDDswmmrR2BAtX59P6" name="Page-7">
        <mxGraphModel dx="1386" dy="773" grid="1" gridSize="10" guides="1" tooltips="1" connect="1" arrows="1" fold="1" page="1" pageScale="1" pageWidth="850" pageHeight="1400" math="0" shadow="0">
            <root>
                <mxCell id="0"/>
                <mxCell id="1" parent="0"/>
            </root>
        </mxGraphModel>
    </diagram>
</mxfile>